<?xml version="1.0" standalone="no"?>
<!DOCTYPE svg PUBLIC "-//W3C//DTD SVG 20010904//EN"
 "http://www.w3.org/TR/2001/REC-SVG-20010904/DTD/svg10.dtd">
<svg version="1.0" xmlns="http://www.w3.org/2000/svg"
 width="1041.000000pt" height="1041.000000pt" viewBox="0 0 1041.000000 1041.000000"
 preserveAspectRatio="xMidYMid meet">
<metadata>
Created by potrace 1.11, written by Peter Selinger 2001-2013
</metadata>
<g transform="translate(0.000000,1041.000000) scale(0.100000,-0.100000)"
fill="#000000" stroke="none">
<path d="M970 9339 c0 -5 5 -7 12 -3 7 5 8 3 4 -5 -5 -7 -14 -10 -22 -7 -10 4
-14 -2 -14 -20 0 -14 -4 -22 -10 -19 -5 3 -10 -3 -10 -14 0 -12 -4 -21 -10
-21 -5 0 -10 -9 -10 -20 0 -11 -4 -20 -10 -20 -5 0 -10 -9 -10 -20 0 -11 -4
-20 -10 -20 -5 0 -10 -11 -10 -25 0 -16 -6 -25 -15 -25 -9 0 -15 -9 -15 -25 0
-14 -3 -25 -7 -25 -10 0 -33 -49 -33 -67 0 -8 -9 -23 -19 -35 -11 -11 -17 -26
-15 -33 3 -7 -2 -15 -10 -18 -10 -4 -16 -18 -16 -37 0 -16 -4 -30 -10 -30 -5
0 -10 -7 -10 -16 0 -8 -4 -12 -10 -9 -6 4 -10 -5 -10 -20 0 -14 -4 -24 -9 -21
-5 3 -8 -6 -8 -21 0 -15 -6 -29 -12 -31 -6 -2 -11 -12 -11 -23 0 -10 -4 -19
-10 -19 -5 0 -10 -9 -10 -20 0 -11 -5 -20 -10 -20 -6 0 -9 -3 -9 -7 4 -25 -3
-43 -16 -43 -9 0 -15 -9 -15 -25 0 -14 -4 -25 -10 -25 -5 0 -10 -9 -10 -20 0
-11 -4 -20 -9 -20 -8 0 -21 -34 -20 -54 1 -5 -6 -13 -15 -18 -8 -5 -13 -15
-10 -22 3 -7 -2 -16 -10 -19 -9 -4 -16 -16 -16 -27 0 -11 -4 -20 -10 -20 -5 0
-9 -3 -9 -7 4 -23 -2 -43 -11 -38 -6 3 -10 -4 -10 -18 0 -13 -8 -32 -17 -43
-19 -20 -29 -79 -12 -69 5 4 9 1 9 -5 0 -15 25 -40 40 -40 6 0 8 -4 5 -10 -3
-5 1 -10 11 -10 9 0 30 -16 47 -35 16 -19 35 -35 42 -35 7 0 26 -13 43 -30 18
-16 39 -30 47 -30 8 0 15 -4 15 -10 0 -5 6 -10 13 -10 7 0 23 -9 35 -20 12
-11 27 -20 33 -20 7 0 10 -3 6 -6 -9 -9 16 -32 29 -27 6 2 19 -8 30 -22 10
-14 29 -25 41 -25 13 0 23 -5 23 -11 0 -14 26 -39 40 -39 7 0 25 -13 40 -30
15 -16 33 -30 39 -30 6 0 11 -4 11 -8 0 -5 16 -14 35 -22 19 -8 35 -17 35 -22
0 -4 6 -8 14 -8 8 0 21 -8 28 -17 7 -10 20 -19 28 -21 8 -2 17 -8 18 -13 2 -5
10 -9 18 -9 9 0 12 -4 9 -10 -3 -5 1 -10 10 -10 9 0 31 -16 48 -35 17 -19 36
-35 42 -35 7 0 20 -9 30 -20 10 -11 25 -20 33 -20 7 0 26 -12 41 -27 14 -16
33 -29 40 -31 8 -2 22 -12 31 -22 10 -11 20 -17 24 -13 3 4 23 -11 44 -33 20
-22 49 -46 65 -54 15 -7 27 -17 27 -22 0 -4 9 -8 20 -8 11 0 20 -4 20 -10 0
-5 7 -10 16 -10 8 0 12 -4 9 -10 -3 -5 2 -10 12 -10 10 0 25 -9 33 -20 8 -11
21 -20 29 -20 8 0 12 -3 8 -6 -9 -9 16 -32 29 -27 6 2 19 -8 30 -22 10 -14 29
-25 41 -25 13 0 23 -4 23 -10 0 -5 12 -13 27 -16 25 -7 26 -8 8 -16 -16 -7
-14 -8 8 -4 17 2 26 -1 24 -8 -2 -6 8 -21 22 -33 28 -25 47 -30 35 -11 -4 7 8
3 27 -8 44 -26 79 -36 76 -20 -1 6 3 10 10 9 7 -2 10 4 7 12 -4 8 -10 13 -14
10 -7 -4 -27 56 -33 102 -2 11 -9 28 -16 37 -7 9 -11 16 -7 16 4 0 0 10 -9 23
-8 13 -12 27 -8 30 3 4 1 7 -5 7 -7 0 -12 9 -12 20 0 11 -5 19 -12 18 -8 -2
-12 8 -11 27 0 17 -7 36 -17 45 -10 8 -20 24 -22 35 -2 11 -9 19 -15 18 -6 -1
-9 6 -6 17 6 22 -23 90 -37 90 -6 0 -10 7 -10 15 0 8 -4 15 -10 15 -5 0 -10 7
-10 15 0 8 -4 15 -10 15 -5 0 -10 13 -10 29 0 16 -5 31 -11 33 -5 2 -11 11
-12 20 -2 9 -9 23 -16 32 -7 8 -10 19 -7 25 3 5 2 11 -3 13 -5 1 -11 10 -13
18 -4 18 -23 40 -36 40 -5 0 -8 14 -6 30 2 17 -1 30 -6 30 -6 0 -10 9 -10 19
0 10 -7 22 -15 25 -9 3 -15 14 -13 23 2 11 -2 17 -10 15 -8 -1 -12 5 -11 15 3
24 -18 73 -31 73 -5 0 -10 7 -10 15 0 8 -4 15 -10 15 -5 0 -10 9 -10 19 0 11
-4 23 -10 26 -5 3 -10 15 -10 26 0 11 -4 17 -10 14 -5 -3 -10 1 -10 9 0 9 5
16 12 16 6 0 0 9 -13 21 -13 12 -23 25 -21 31 1 5 -5 16 -13 24 -8 9 -13 19
-10 24 3 4 -2 10 -10 14 -8 3 -12 12 -9 21 4 10 2 15 -7 13 -10 -2 -13 6 -11
25 3 19 -3 34 -18 47 -12 10 -23 27 -25 37 -1 10 -7 17 -13 16 -5 -1 -8 6 -5
17 6 21 -17 80 -31 80 -14 0 -35 33 -36 57 0 12 -4 25 -10 28 -5 3 -10 17 -10
30 0 12 -7 25 -15 29 -8 3 -14 9 -13 13 1 4 -3 18 -10 31 -7 12 -10 22 -7 22
3 0 -6 12 -20 27 -15 17 -23 34 -19 46 4 11 1 17 -8 15 -8 -2 -12 5 -11 20 2
12 -1 22 -6 22 -5 0 -11 10 -13 23 -2 12 -9 21 -16 19 -9 -1 -12 6 -10 20 2
14 -2 22 -9 21 -7 -2 -12 5 -11 15 3 24 -34 102 -49 102 -7 0 -13 11 -13 25 0
14 -4 25 -10 25 -5 0 -10 11 -10 24 0 13 -7 26 -15 30 -8 3 -14 9 -13 13 1 4
-3 18 -10 31 -7 12 -10 22 -7 22 4 0 -1 7 -9 16 -9 8 -14 20 -11 25 4 5 -1 9
-9 9 -12 0 -36 44 -25 46 2 0 -4 8 -13 17 -19 19 -48 23 -48 6z"/>
<path d="M9360 9312 c0 -7 -4 -10 -10 -7 -5 3 -10 -3 -10 -14 0 -12 -5 -21
-11 -21 -5 0 -8 -4 -4 -9 3 -5 -6 -21 -20 -35 -14 -14 -25 -37 -25 -51 0 -14
-4 -25 -10 -25 -5 0 -9 -3 -9 -7 4 -25 -3 -43 -16 -43 -9 0 -15 -9 -15 -24 0
-13 -3 -26 -7 -28 -16 -6 -52 -89 -46 -104 3 -9 0 -14 -8 -12 -8 2 -13 -4 -11
-13 1 -9 -4 -19 -13 -23 -8 -3 -15 -15 -15 -26 0 -11 -4 -20 -10 -20 -5 0 -9
-10 -7 -22 1 -14 -3 -22 -10 -20 -8 1 -13 -8 -13 -21 0 -13 -8 -32 -17 -43
-10 -11 -19 -26 -21 -34 -2 -8 -8 -16 -13 -18 -5 -2 -9 -12 -9 -23 0 -10 -4
-19 -10 -19 -5 0 -10 -11 -10 -25 0 -14 -4 -25 -10 -25 -5 0 -10 -11 -10 -25
0 -16 -6 -25 -15 -25 -8 0 -15 -9 -15 -20 0 -11 -5 -20 -11 -20 -6 0 -9 -9 -6
-19 3 -12 -4 -28 -18 -41 -12 -12 -22 -33 -22 -48 0 -14 -6 -28 -12 -30 -6 -2
-11 -12 -11 -23 0 -10 -5 -19 -11 -19 -6 0 -8 -9 -4 -20 4 -13 2 -20 -7 -20
-13 0 -38 -44 -38 -67 0 -7 -5 -13 -11 -13 -6 0 -8 -7 -5 -15 3 -9 -1 -18 -9
-21 -8 -4 -15 -17 -15 -30 0 -13 -4 -24 -10 -24 -5 0 -10 -9 -10 -20 0 -11 -4
-20 -10 -20 -5 0 -10 -11 -10 -25 0 -14 -6 -25 -13 -25 -15 0 -51 -78 -48
-103 1 -10 -3 -16 -11 -15 -8 2 -12 -4 -10 -15 2 -9 -4 -20 -13 -23 -8 -3 -15
-15 -15 -25 0 -10 -4 -19 -10 -19 -5 0 -9 -10 -7 -22 1 -14 -3 -22 -10 -21 -7
2 -13 -6 -13 -17 0 -11 -5 -20 -11 -20 -5 0 -8 -4 -4 -9 3 -5 -1 -15 -8 -23
-8 -7 -12 -19 -9 -26 2 -6 -3 -15 -12 -18 -9 -3 -16 -17 -16 -30 0 -13 -4 -24
-10 -24 -5 0 -10 -9 -10 -20 0 -11 -4 -20 -10 -20 -5 0 -10 -11 -10 -25 0 -14
-6 -25 -13 -25 -15 0 -51 -78 -48 -103 1 -10 -3 -16 -11 -15 -8 2 -12 -4 -10
-15 2 -9 -4 -20 -13 -23 -8 -3 -15 -15 -15 -25 0 -10 -4 -19 -10 -19 -5 0 -8
-13 -6 -30 2 -16 -1 -30 -6 -30 -15 0 -33 -23 -36 -49 -2 -13 -12 -33 -23 -44
-10 -12 -18 -26 -18 -31 4 -32 -4 -57 -26 -90 -13 -20 -22 -36 -18 -36 3 0 0
-7 -7 -15 -11 -13 -10 -14 4 -9 10 4 16 1 16 -8 0 -7 9 -14 20 -14 11 0 20 4
20 7 0 6 30 20 50 24 16 3 80 39 80 45 0 4 9 10 21 13 12 3 18 10 14 16 -3 6
0 11 7 11 7 0 22 12 33 26 18 25 94 68 103 59 3 -2 17 9 32 25 16 17 35 30 45
30 9 0 13 5 10 10 -3 6 1 10 9 10 9 0 16 5 16 10 0 6 8 10 18 10 10 0 24 9 32
20 8 11 21 20 29 20 8 0 32 19 53 42 21 23 41 39 44 35 4 -3 19 7 34 23 16 17
35 30 45 30 9 0 13 5 10 10 -3 6 1 10 9 10 9 0 16 5 16 10 0 6 9 10 20 10 11
0 20 4 20 9 0 5 15 16 34 25 18 8 39 22 46 31 7 8 18 15 25 15 7 0 21 11 31
25 10 14 27 25 37 25 10 0 15 5 12 10 -3 6 0 10 7 10 8 0 20 9 28 20 8 11 20
20 27 20 7 0 28 14 46 30 19 17 40 30 46 30 6 0 11 5 11 10 0 6 5 10 11 10 7
0 19 8 28 18 9 9 28 23 44 31 15 8 27 20 27 26 0 6 16 17 35 25 19 8 35 18 35
22 0 5 13 14 30 19 16 6 27 15 24 20 -3 5 2 9 11 9 9 0 14 4 10 9 -3 5 11 15
30 22 19 7 35 17 35 21 0 4 7 8 15 8 8 0 34 18 56 40 23 22 47 40 54 40 7 0
21 11 31 25 10 14 25 25 32 25 7 0 28 16 47 35 38 38 42 67 13 99 -10 11 -18
30 -18 43 0 13 -5 22 -12 20 -8 -1 -12 7 -10 21 2 12 -2 22 -7 22 -6 0 -11 9
-11 20 0 11 -7 23 -15 26 -9 4 -14 14 -13 23 2 9 -3 15 -11 13 -9 -2 -11 3 -7
14 4 11 -1 26 -14 39 -12 12 -22 32 -23 44 -1 11 -7 21 -14 21 -7 0 -13 11
-13 25 0 14 -4 25 -10 25 -5 0 -10 11 -10 25 0 14 -4 25 -10 25 -5 0 -10 9
-10 19 0 11 -4 21 -9 23 -5 2 -11 10 -13 18 -2 8 -11 23 -20 34 -10 11 -18 30
-18 43 0 13 -5 22 -12 21 -8 -2 -12 7 -10 25 3 20 -4 35 -22 52 -15 13 -25 30
-24 37 2 7 -2 12 -9 11 -7 -2 -10 7 -7 24 3 17 -2 33 -16 48 -12 12 -22 32
-23 44 -1 11 -7 21 -14 21 -7 0 -13 7 -13 15 0 8 -4 15 -10 15 -5 0 -10 16
-10 35 0 19 -4 35 -10 35 -5 0 -10 7 -10 16 0 8 -7 22 -15 31 -8 8 -13 19 -10
24 4 5 1 9 -4 9 -6 0 -11 9 -11 21 0 11 -4 17 -10 14 -5 -3 -10 -1 -10 5 0 19
-24 35 -52 35 -17 1 -28 -5 -28 -13z"/>
<path d="M317 7982 c-22 -24 -24 -60 -3 -42 13 10 14 8 10 -13 -2 -15 1 -27
10 -30 9 -4 12 -15 8 -33 -3 -19 -2 -25 7 -19 8 4 14 -1 18 -14 3 -12 9 -21
14 -21 5 0 9 -9 9 -19 0 -11 4 -21 9 -23 5 -1 11 -10 13 -18 2 -8 9 -21 16
-28 7 -8 10 -17 7 -22 -3 -5 0 -10 6 -12 6 -2 12 -16 12 -31 0 -15 3 -24 8
-21 8 4 11 -10 8 -32 0 -4 4 -10 11 -14 6 -4 12 -15 14 -24 1 -10 8 -21 15
-25 7 -4 11 -12 10 -17 -3 -11 33 -88 44 -92 4 -2 7 -12 7 -23 0 -10 5 -19 10
-19 6 0 10 -11 10 -25 0 -15 5 -24 13 -23 7 2 13 -9 15 -24 2 -16 8 -28 13
-28 5 0 9 -9 9 -20 0 -11 5 -20 10 -20 6 0 10 -9 10 -20 0 -11 5 -20 10 -20 6
0 10 -9 10 -21 0 -11 5 -17 10 -14 6 4 10 -5 10 -20 0 -15 4 -24 10 -20 9 5
12 -8 9 -31 0 -4 4 -10 11 -14 6 -4 12 -15 14 -24 1 -10 9 -21 16 -26 8 -5 11
-12 8 -16 -4 -3 3 -23 16 -43 13 -20 22 -44 20 -53 -1 -10 4 -18 12 -18 8 0
11 -6 7 -17 -5 -12 -2 -15 9 -11 11 5 14 1 10 -18 -3 -17 0 -24 12 -24 12 0
16 -9 16 -35 0 -19 5 -35 10 -35 6 0 10 -9 10 -20 0 -11 5 -20 10 -20 6 0 10
-9 10 -20 0 -11 5 -20 10 -20 6 0 10 -9 10 -21 0 -11 5 -17 10 -14 6 3 10 0
10 -9 0 -8 5 -16 11 -18 6 -2 12 -16 12 -31 1 -15 8 -29 16 -32 7 -3 10 -12 7
-20 -3 -9 1 -18 9 -21 8 -4 15 -12 15 -20 0 -17 33 -88 43 -92 4 -2 7 -13 7
-24 0 -24 15 -40 58 -59 17 -7 32 -18 32 -23 0 -12 52 -56 68 -56 6 0 12 -4
12 -10 0 -5 7 -10 15 -10 8 0 15 -4 15 -10 0 -5 6 -10 13 -10 7 0 23 -11 35
-25 12 -14 28 -25 36 -25 8 0 28 -11 44 -25 17 -14 35 -25 41 -25 6 0 11 -4
11 -10 0 -5 7 -10 16 -10 8 0 12 -4 9 -10 -3 -5 1 -10 10 -10 8 0 29 -16 46
-35 17 -19 37 -35 43 -35 7 0 21 -9 31 -20 10 -11 25 -20 33 -20 7 0 26 -12
41 -27 14 -16 33 -29 40 -31 8 -2 22 -12 32 -23 9 -10 23 -19 30 -19 8 0 27
-16 44 -35 16 -19 37 -35 45 -35 9 0 22 -9 30 -20 8 -11 21 -20 30 -20 9 0 22
-9 30 -20 8 -11 20 -20 28 -20 7 0 10 -4 7 -10 -3 -5 2 -10 12 -10 10 0 25 -9
32 -19 8 -11 19 -17 26 -15 6 3 20 -7 31 -21 10 -14 28 -25 39 -25 11 0 27 -9
35 -20 8 -11 20 -20 28 -20 7 0 10 -5 7 -10 -3 -6 2 -13 12 -17 10 -4 27 -15
37 -25 11 -10 24 -18 28 -18 5 0 23 -13 41 -30 18 -16 40 -30 49 -30 9 0 23
-8 30 -17 7 -10 19 -19 27 -21 8 -2 26 -16 41 -32 16 -17 35 -30 44 -30 8 0
23 -11 32 -25 9 -14 22 -25 29 -25 6 0 20 -9 30 -20 10 -11 25 -20 34 -20 9 0
23 -9 31 -20 8 -11 20 -20 28 -20 7 0 10 -4 7 -10 -3 -5 3 -10 14 -10 12 0 21
-4 21 -10 0 -5 8 -10 17 -10 9 0 14 -3 10 -6 -9 -9 16 -32 29 -27 6 2 19 -8
30 -22 10 -14 27 -25 36 -25 10 0 18 -4 18 -10 0 -5 7 -10 15 -10 8 0 15 -5
15 -11 0 -19 30 -41 50 -36 11 3 17 1 14 -4 -6 -11 19 -39 36 -39 6 0 8 -4 5
-10 -3 -5 3 -10 14 -10 12 0 21 -4 21 -9 0 -5 13 -14 30 -20 16 -5 30 -14 30
-20 0 -5 15 -14 33 -20 18 -6 39 -20 47 -31 8 -11 20 -20 28 -20 7 0 10 -4 7
-10 -3 -5 3 -10 14 -10 12 0 21 -6 21 -14 0 -7 15 -21 34 -30 18 -8 39 -22 46
-31 7 -8 18 -15 25 -15 7 0 25 -12 42 -27 16 -16 35 -29 43 -31 7 -2 25 -16
40 -32 15 -16 30 -26 34 -23 4 4 17 -5 30 -20 13 -15 28 -27 34 -27 6 0 26
-16 45 -35 19 -19 41 -35 51 -35 9 0 16 -4 16 -10 0 -5 7 -10 16 -10 8 0 12
-4 9 -10 -3 -5 3 -10 14 -10 12 0 21 -4 21 -10 0 -5 7 -10 15 -10 8 0 15 -4
15 -10 0 -5 5 -10 10 -10 6 0 22 -11 36 -25 14 -14 31 -25 38 -25 7 0 26 -11
42 -25 16 -14 35 -25 42 -25 6 0 12 -5 12 -11 0 -17 39 -48 85 -69 22 -10 53
-32 69 -49 17 -17 35 -31 42 -31 7 0 24 -10 36 -22 13 -13 30 -24 38 -26 7 -2
28 -19 45 -38 17 -18 36 -34 42 -34 6 0 16 -7 23 -15 7 -9 28 -23 46 -31 19
-9 34 -20 34 -25 0 -5 7 -9 16 -9 9 0 28 -12 43 -27 14 -16 33 -29 40 -31 8
-2 22 -12 31 -22 10 -11 20 -17 24 -13 3 4 21 -10 40 -30 19 -20 43 -37 55
-37 11 0 21 -5 21 -11 0 -15 26 -39 44 -39 8 0 18 -4 21 -10 20 -33 95 25 95
73 0 15 4 27 9 27 5 0 9 6 8 13 -1 36 4 57 13 52 6 -3 10 3 10 14 0 12 4 21 8
21 4 0 9 12 10 28 1 15 7 29 12 30 6 2 10 19 10 37 0 19 5 37 10 40 6 3 10 19
10 36 0 18 5 29 14 29 8 0 13 8 11 18 -1 9 4 25 12 34 10 11 14 30 11 52 -2
21 0 34 7 33 5 -1 11 13 13 31 2 17 7 32 13 32 5 0 9 12 9 26 0 14 4 23 9 19
5 -3 9 9 8 27 0 18 5 43 11 55 7 13 10 23 6 23 -3 0 1 11 10 25 31 48 12 135
-30 135 -6 0 -28 18 -49 40 -21 22 -45 40 -53 40 -8 0 -22 8 -31 18 -9 9 -23
18 -31 20 -8 2 -16 8 -18 13 -2 5 -11 9 -19 9 -9 0 -14 3 -10 6 8 9 -18 34
-35 34 -8 0 -20 9 -28 21 -8 11 -30 27 -47 36 -18 8 -33 19 -33 24 0 5 -8 9
-18 9 -10 0 -24 9 -32 20 -8 11 -20 20 -28 20 -7 0 -10 5 -7 10 3 6 -3 10 -14
10 -12 0 -21 5 -21 10 0 6 -7 10 -17 10 -9 0 -14 3 -10 6 9 9 -16 32 -29 27
-6 -2 -19 8 -30 22 -10 14 -27 25 -37 25 -19 0 -47 22 -47 38 0 5 -12 15 -27
23 -16 8 -37 22 -47 32 -11 9 -24 17 -28 17 -5 0 -18 9 -30 20 -12 11 -28 20
-35 20 -7 0 -13 5 -13 10 0 6 -6 10 -14 10 -8 0 -21 8 -28 18 -7 9 -20 18 -28
20 -8 2 -16 8 -18 13 -2 5 -10 9 -18 9 -9 0 -12 5 -9 10 3 6 -2 10 -12 10 -10
0 -27 11 -37 25 -10 14 -24 25 -31 25 -6 0 -24 14 -40 30 -16 17 -36 30 -45
30 -8 0 -22 9 -30 20 -8 11 -20 20 -26 20 -6 0 -25 13 -42 29 -16 16 -33 27
-36 23 -4 -3 -21 11 -40 31 -19 20 -39 37 -45 37 -7 0 -22 11 -35 25 -13 14
-30 25 -37 25 -8 0 -21 9 -29 20 -8 11 -21 20 -30 20 -9 0 -22 9 -30 20 -8 11
-20 20 -28 20 -7 0 -26 14 -43 31 -16 16 -43 35 -59 41 -17 5 -30 14 -30 19 0
5 -7 9 -16 9 -8 0 -12 5 -9 10 3 6 -3 10 -14 10 -12 0 -21 5 -21 11 0 15 -51
59 -67 59 -7 0 -13 4 -13 9 0 5 -16 16 -35 25 -19 9 -45 27 -58 39 -13 12 -29
23 -37 25 -7 2 -21 11 -29 20 -9 9 -22 18 -30 20 -8 2 -22 12 -32 23 -9 10
-22 19 -28 19 -6 0 -25 16 -42 35 -17 19 -39 35 -48 35 -9 0 -23 9 -31 20 -8
11 -21 20 -28 20 -8 0 -26 12 -40 28 -15 15 -33 27 -39 28 -30 2 -36 4 -30 10
9 9 -40 54 -58 54 -19 0 -45 23 -45 39 0 6 -9 11 -20 11 -11 0 -20 4 -20 9 0
5 -16 16 -36 26 -19 9 -38 23 -41 31 -3 8 -11 14 -19 14 -8 0 -14 3 -14 8 0 7
-15 16 -78 46 -18 8 -35 22 -38 30 -3 9 -10 14 -14 11 -5 -3 -25 10 -44 30
-19 19 -40 35 -47 35 -6 0 -20 11 -31 25 -11 14 -25 25 -31 25 -7 0 -26 14
-44 30 -18 17 -37 30 -44 30 -6 0 -19 8 -28 18 -9 9 -23 18 -31 20 -8 2 -16 8
-18 13 -2 5 -11 9 -20 9 -8 0 -13 3 -9 6 8 9 -18 34 -35 34 -8 0 -20 9 -28 20
-8 11 -25 20 -37 20 -13 0 -23 5 -23 10 0 17 -47 60 -65 60 -8 0 -15 5 -15 10
0 6 -7 10 -16 10 -8 0 -12 5 -9 10 3 6 -1 10 -10 10 -9 0 -27 11 -41 25 -14
14 -32 25 -40 25 -8 0 -17 7 -20 15 -4 8 -12 15 -20 15 -8 0 -14 5 -14 10 0 6
-9 10 -20 10 -11 0 -20 5 -20 10 0 6 -7 10 -16 10 -8 0 -12 5 -9 10 3 6 -3 10
-14 10 -12 0 -21 5 -21 10 0 13 -51 59 -66 60 -5 0 -23 14 -39 30 -16 17 -36
30 -45 30 -8 0 -22 9 -30 19 -7 11 -17 18 -21 15 -4 -2 -24 11 -43 31 -19 19
-41 35 -48 35 -7 0 -22 11 -32 25 -10 14 -24 25 -30 25 -6 0 -25 14 -43 30
-18 17 -39 30 -47 30 -9 0 -16 5 -16 10 0 6 -7 10 -16 10 -8 0 -12 5 -9 10 3
6 -1 10 -10 10 -10 0 -29 13 -45 30 -15 16 -30 26 -34 23 -4 -4 -17 5 -30 20
-13 15 -31 27 -40 27 -19 0 -46 23 -46 39 0 6 -8 11 -18 11 -10 0 -24 9 -32
20 -8 11 -20 20 -28 20 -7 0 -10 5 -7 10 3 6 -3 10 -14 10 -12 0 -21 5 -21 10
0 6 -7 10 -15 10 -8 0 -15 5 -15 10 0 6 -5 10 -11 10 -7 0 -20 9 -30 21 -9 11
-21 21 -26 21 -17 1 -53 22 -53 30 0 4 -7 8 -16 8 -8 0 -12 5 -9 10 3 6 -2 10
-12 10 -10 0 -27 11 -37 25 -10 14 -27 25 -37 25 -11 0 -19 5 -19 11 0 5 -5 7
-10 4 -6 -4 -9 -1 -8 7 2 7 -3 12 -10 10 -8 -1 -11 2 -8 6 10 16 -59 62 -92
62 -11 0 -26 -8 -35 -18z"/>
<path d="M9990 7960 c-19 -10 -56 -28 -82 -40 -27 -13 -48 -29 -48 -37 0 -7
-9 -13 -21 -13 -11 0 -17 -4 -14 -10 3 -5 1 -10 -5 -10 -6 0 -22 -11 -36 -25
-14 -14 -31 -25 -39 -25 -8 0 -25 -11 -39 -25 -14 -14 -30 -25 -36 -25 -5 0
-10 -4 -10 -10 0 -5 -7 -10 -15 -10 -8 0 -15 -4 -15 -10 0 -5 -9 -10 -21 -10
-11 0 -17 -4 -14 -10 3 -5 -1 -10 -9 -10 -9 0 -16 -4 -16 -10 0 -5 -7 -10 -16
-10 -18 0 -44 -23 -44 -39 0 -6 -7 -11 -15 -11 -8 0 -15 -4 -15 -10 0 -5 -7
-10 -16 -10 -18 0 -46 -25 -37 -34 6 -6 0 -8 -29 -10 -18 -1 -37 -19 -31 -28
2 -5 -3 -8 -11 -8 -9 0 -16 -4 -16 -10 0 -5 -9 -10 -21 -10 -11 0 -17 -4 -14
-10 3 -5 -1 -10 -9 -10 -9 0 -16 -4 -16 -10 0 -5 -8 -10 -18 -10 -22 0 -55
-33 -45 -44 5 -4 4 -7 -2 -5 -17 4 -59 -18 -75 -40 -8 -12 -23 -21 -33 -21
-10 0 -15 -4 -12 -10 3 -5 1 -10 -6 -10 -6 0 -19 -9 -28 -19 -10 -11 -24 -21
-32 -23 -8 -2 -20 -11 -27 -20 -7 -10 -21 -18 -31 -18 -10 0 -26 -9 -36 -20
-10 -11 -22 -20 -26 -20 -8 0 -34 -19 -63 -46 -6 -5 -19 -13 -29 -17 -10 -4
-15 -11 -12 -17 3 -5 -1 -10 -9 -10 -9 0 -16 -4 -16 -10 0 -5 -9 -10 -20 -10
-11 0 -20 -4 -20 -10 0 -5 -5 -10 -11 -10 -7 0 -22 -12 -35 -27 -13 -15 -26
-24 -30 -20 -4 3 -19 -7 -34 -23 -16 -17 -35 -30 -45 -30 -9 0 -13 -4 -10 -10
3 -5 -1 -10 -9 -10 -9 0 -16 -4 -16 -10 0 -5 -8 -10 -18 -10 -10 0 -24 -9 -32
-20 -8 -11 -21 -20 -30 -20 -8 0 -29 -16 -45 -35 -17 -19 -36 -35 -44 -35 -7
0 -21 -9 -30 -19 -10 -11 -24 -21 -32 -23 -7 -2 -26 -15 -40 -30 -15 -16 -34
-28 -41 -28 -8 0 -23 -9 -33 -20 -10 -11 -24 -20 -31 -20 -6 0 -26 -16 -43
-35 -17 -19 -38 -35 -46 -35 -9 0 -13 -4 -10 -10 3 -5 1 -10 -5 -10 -6 0 -22
-11 -36 -25 -14 -14 -36 -28 -49 -31 -14 -3 -25 -10 -25 -15 0 -8 -40 -33 -72
-45 -10 -3 -18 -10 -18 -15 0 -5 -5 -9 -11 -9 -7 0 -19 -8 -28 -18 -9 -9 -28
-23 -43 -31 -16 -8 -28 -18 -28 -23 0 -4 -9 -8 -21 -8 -12 0 -17 -4 -14 -11 4
-6 -2 -13 -14 -16 -12 -3 -21 -9 -21 -14 0 -5 -7 -9 -16 -9 -18 0 -46 -25 -37
-34 6 -6 0 -8 -29 -10 -7 -1 -25 -13 -40 -28 -14 -16 -31 -28 -38 -28 -7 0
-25 -13 -40 -30 -15 -16 -35 -30 -43 -30 -8 0 -29 -16 -46 -35 -17 -19 -36
-35 -42 -35 -6 0 -19 -9 -28 -19 -10 -11 -23 -21 -31 -23 -8 -2 -23 -11 -34
-21 -33 -28 -89 -66 -108 -73 -10 -4 -18 -10 -18 -15 0 -5 -7 -9 -15 -9 -8 0
-15 -4 -15 -10 0 -5 -6 -10 -12 -10 -17 0 -68 -44 -68 -59 0 -6 -7 -11 -15
-11 -9 0 -27 -11 -41 -25 -14 -14 -31 -25 -38 -25 -16 0 -58 -35 -50 -43 3 -3
-11 -11 -30 -18 -20 -7 -36 -17 -36 -21 0 -4 -9 -8 -21 -8 -11 0 -17 -4 -14
-10 3 -5 0 -10 -7 -10 -8 0 -20 -9 -28 -20 -8 -11 -22 -20 -31 -20 -10 0 -26
-11 -37 -25 -11 -14 -26 -25 -34 -25 -7 0 -22 -11 -32 -25 -11 -14 -25 -24
-31 -21 -6 2 -22 -9 -34 -25 -13 -16 -30 -29 -38 -29 -8 0 -28 -13 -43 -30
-15 -16 -35 -30 -42 -30 -8 0 -23 -9 -33 -20 -10 -11 -24 -20 -30 -20 -7 0
-26 -16 -42 -35 -17 -19 -38 -35 -47 -35 -10 0 -14 -4 -11 -10 3 -5 -1 -10 -9
-10 -9 0 -16 -4 -16 -9 0 -5 -15 -14 -32 -22 -18 -7 -40 -21 -49 -31 -9 -10
-21 -18 -28 -18 -6 0 -11 -4 -11 -10 0 -5 -7 -10 -15 -10 -8 0 -15 -4 -15 -10
0 -5 -8 -10 -18 -10 -10 0 -24 -9 -32 -20 -8 -11 -20 -20 -28 -20 -14 0 -42
-23 -42 -35 0 -13 -29 -35 -47 -35 -10 0 -27 -11 -37 -25 -11 -14 -24 -24 -30
-22 -13 5 -38 -18 -29 -27 4 -3 -1 -6 -10 -6 -10 0 -17 -4 -17 -10 0 -5 -9
-10 -21 -10 -11 0 -17 -4 -14 -10 3 -5 -1 -10 -9 -10 -9 0 -16 -4 -16 -10 0
-5 -7 -10 -16 -10 -8 0 -29 -13 -47 -30 -18 -16 -37 -30 -43 -30 -6 0 -20 -11
-30 -25 -10 -14 -25 -25 -32 -25 -7 0 -29 -16 -48 -35 -19 -20 -39 -33 -43
-31 -4 3 -14 -4 -21 -15 -8 -10 -22 -19 -31 -19 -9 0 -24 -9 -34 -20 -10 -11
-23 -20 -30 -20 -15 0 -55 -42 -55 -58 0 -7 -5 -11 -11 -9 -14 3 -22 -90 -8
-99 5 -3 9 -18 9 -33 0 -15 6 -36 14 -46 8 -11 12 -30 10 -42 -3 -15 0 -22 8
-21 9 2 12 -7 9 -26 -1 -16 2 -32 9 -36 6 -4 13 -16 14 -26 2 -10 8 -18 13
-17 5 1 7 -14 5 -33 -3 -22 1 -41 11 -52 8 -9 13 -25 12 -34 -2 -10 1 -18 6
-18 5 0 9 -16 9 -35 0 -23 4 -34 13 -32 7 1 13 -12 15 -35 2 -21 7 -38 13 -38
5 0 9 -13 9 -29 0 -16 5 -31 11 -33 6 -2 12 -16 12 -31 0 -15 3 -24 8 -21 5 3
10 -4 11 -15 0 -12 1 -27 2 -33 1 -7 5 -16 9 -19 5 -3 10 -15 11 -25 2 -10 10
-18 17 -16 8 2 11 0 6 -4 -10 -10 22 -44 43 -44 9 0 26 9 38 20 12 11 28 20
37 20 8 0 15 5 15 11 0 16 27 39 46 39 9 0 27 12 40 27 13 15 26 24 30 20 4
-3 19 7 34 23 16 17 35 30 45 30 9 0 13 4 10 10 -3 6 1 10 9 10 9 0 16 5 16
10 0 6 8 10 18 10 10 0 24 9 32 20 8 11 22 20 31 20 9 0 31 16 48 35 17 19 35
35 41 35 6 0 27 16 46 35 19 20 39 33 43 31 4 -3 14 4 21 15 8 10 22 19 31 19
9 0 24 9 34 20 10 11 24 20 31 20 6 0 22 11 35 25 13 14 39 33 57 41 17 9 32
23 32 30 0 8 8 14 18 14 9 0 27 13 40 30 13 16 39 34 58 40 19 6 34 16 34 21
0 5 7 9 15 9 8 0 15 5 15 10 0 6 7 10 15 10 8 0 15 5 15 10 0 6 9 10 21 10 11
0 17 5 14 10 -3 6 0 10 7 10 8 0 20 9 28 20 8 11 21 20 29 20 7 0 24 11 37 25
13 14 28 25 34 25 15 0 60 46 53 54 -4 3 1 6 11 6 9 0 14 5 11 10 -5 8 4 11
30 10 9 -1 35 28 35 39 0 6 7 8 15 5 9 -4 23 3 34 15 10 11 25 21 33 21 8 0
23 9 33 20 10 11 24 20 30 20 7 0 26 16 42 35 17 19 38 35 47 35 10 0 14 5 11
10 -3 6 1 10 9 10 9 0 16 5 16 10 0 6 6 10 14 10 7 0 19 7 26 15 7 8 16 13 20
10 4 -3 10 2 14 10 3 8 12 15 20 15 8 0 26 11 40 25 14 14 30 25 37 25 6 0 24
14 39 30 15 17 35 30 44 30 9 0 16 5 16 11 0 14 25 39 39 39 6 0 11 5 11 10 0
6 8 10 18 10 9 0 26 11 36 25 11 14 25 24 31 21 7 -2 18 4 26 15 7 10 22 19
32 19 10 0 15 5 12 10 -3 6 1 10 9 10 9 0 16 5 16 10 0 6 7 10 15 10 8 0 29
14 47 30 17 17 36 30 43 30 7 0 21 11 31 25 10 14 25 25 33 25 7 0 21 9 30 19
10 11 24 21 31 23 8 2 31 20 51 41 21 20 44 37 52 37 7 0 22 9 32 20 10 11 24
20 30 20 7 0 19 7 26 16 7 9 24 20 37 25 13 5 20 13 17 19 -3 5 0 10 7 10 8 0
20 9 28 20 8 11 22 20 32 20 10 0 18 5 18 10 0 6 6 10 14 10 8 0 16 7 20 15 3
8 12 15 20 15 9 0 31 16 50 35 20 19 42 35 51 35 8 0 15 5 15 10 0 6 7 10 15
10 18 0 65 43 65 60 0 5 10 10 21 10 12 0 36 17 55 37 19 20 36 34 40 31 3 -4
20 7 36 23 17 16 37 29 44 29 8 0 14 5 14 10 0 6 9 10 20 10 11 0 20 4 20 9 0
5 15 16 34 25 19 9 46 30 60 46 13 17 31 30 38 30 8 0 20 9 28 20 8 11 20 20
28 20 7 0 24 11 37 24 13 14 35 28 47 32 13 4 29 15 36 25 7 11 20 19 28 19 8
0 14 5 14 10 0 6 4 10 10 10 5 0 22 13 37 28 16 16 36 32 46 35 10 4 15 11 12
17 -3 5 -1 10 5 10 7 0 25 14 40 30 15 17 33 30 39 30 6 0 11 7 11 15 0 8 4
15 8 15 8 0 45 81 48 108 2 8 7 19 13 25 6 6 11 17 11 25 0 8 8 22 18 31 9 9
17 22 18 29 1 6 2 21 3 33 0 11 6 17 11 14 6 -3 10 2 10 12 0 10 9 25 20 33
12 8 20 26 20 42 0 15 5 28 10 28 6 0 10 11 10 24 0 14 5 28 10 31 6 3 10 15
10 26 0 10 7 19 15 19 8 0 15 9 15 20 0 11 3 20 8 20 11 0 34 58 27 70 -4 6
-1 9 7 8 7 -2 12 3 10 11 -2 8 2 18 9 22 7 4 14 16 15 26 2 9 8 19 13 21 6 2
11 15 11 28 0 14 4 22 10 19 6 -4 10 5 10 20 0 15 4 24 10 20 6 -3 10 3 10 14
0 12 5 21 11 21 5 0 8 4 4 9 -3 5 2 16 10 24 8 9 15 23 15 31 0 9 5 16 10 16
6 0 10 11 10 24 0 14 5 28 10 31 6 3 10 15 10 26 0 10 6 19 13 19 7 0 13 10
14 21 1 12 11 31 21 43 21 23 36 56 33 70 -1 5 3 13 10 17 7 4 14 15 15 25 2
9 8 20 15 24 6 5 10 19 7 34 -4 18 -1 26 8 26 8 0 14 7 14 16 0 8 5 12 10 9 6
-4 10 6 10 22 0 17 8 34 20 43 12 8 20 26 20 42 0 15 3 28 8 28 12 0 32 51 32
81 0 15 5 31 10 34 16 10 12 33 -7 43 -12 6 -30 3 -53 -8z"/>
<path d="M8993 5945 c-13 -7 -31 -19 -41 -28 -10 -10 -23 -17 -29 -17 -6 0
-24 -16 -40 -35 -17 -19 -38 -35 -47 -35 -10 0 -14 -4 -11 -10 3 -5 0 -10 -9
-10 -8 0 -16 -4 -18 -9 -1 -5 -10 -11 -18 -13 -8 -2 -22 -11 -31 -20 -9 -10
-21 -18 -28 -18 -6 0 -11 -4 -11 -10 0 -5 -6 -10 -13 -10 -7 0 -23 -9 -35 -20
-12 -11 -25 -20 -30 -20 -5 0 -23 -13 -40 -30 -18 -16 -39 -30 -47 -30 -8 0
-15 -5 -15 -10 0 -18 -48 -60 -80 -72 -17 -5 -30 -14 -30 -19 0 -5 -8 -9 -18
-9 -10 0 -24 -9 -32 -20 -8 -11 -21 -20 -30 -20 -9 0 -22 -9 -30 -20 -8 -11
-20 -20 -27 -20 -7 0 -27 -13 -45 -30 -17 -16 -37 -30 -45 -30 -7 0 -18 -11
-23 -25 -5 -14 -16 -25 -25 -25 -8 0 -15 -4 -15 -10 0 -5 -7 -10 -16 -10 -9 0
-24 -9 -33 -19 -10 -11 -24 -21 -32 -23 -7 -2 -26 -15 -40 -30 -15 -16 -34
-28 -41 -28 -8 0 -23 -9 -33 -20 -10 -11 -24 -20 -31 -20 -6 0 -26 -16 -43
-35 -17 -19 -38 -35 -46 -35 -9 0 -13 -4 -10 -10 3 -5 -1 -10 -9 -10 -9 0 -16
-4 -16 -10 0 -5 -6 -10 -13 -10 -8 0 -22 -9 -32 -20 -9 -10 -33 -24 -51 -30
-19 -7 -34 -16 -34 -21 0 -5 -7 -9 -15 -9 -8 0 -15 -4 -15 -10 0 -5 -6 -10
-13 -10 -7 0 -19 -9 -27 -20 -8 -11 -19 -20 -25 -20 -15 0 -65 -45 -65 -59 0
-6 -11 -11 -25 -11 -14 0 -25 -4 -25 -10 0 -5 -7 -10 -16 -10 -18 0 -46 -25
-37 -34 4 -3 -1 -6 -11 -6 -9 0 -14 -4 -11 -10 3 -5 -1 -10 -10 -10 -9 0 -14
-4 -11 -8 3 -5 -10 -15 -29 -22 -19 -8 -35 -17 -35 -22 0 -4 -7 -8 -15 -8 -8
0 -29 -13 -47 -30 -17 -16 -37 -30 -44 -30 -7 0 -21 -11 -32 -25 -11 -14 -25
-25 -32 -25 -7 0 -24 -13 -40 -30 -15 -16 -33 -30 -41 -32 -7 -2 -24 -13 -36
-25 -13 -13 -30 -23 -37 -23 -7 0 -23 -11 -36 -25 -13 -14 -29 -25 -37 -25 -7
0 -13 -4 -13 -8 0 -5 -20 -19 -45 -32 -25 -13 -45 -27 -45 -32 0 -13 -26 -38
-41 -38 -6 0 -21 -10 -32 -22 -13 -15 -21 -19 -24 -11 -3 8 -20 -3 -43 -27
-22 -22 -45 -40 -52 -40 -8 0 -20 -9 -28 -20 -8 -11 -23 -20 -33 -20 -10 0
-15 -4 -12 -10 3 -5 -1 -10 -9 -10 -9 0 -16 -4 -16 -10 0 -5 -7 -10 -16 -10
-9 0 -27 -11 -40 -25 -13 -14 -28 -25 -34 -25 -7 0 -29 -18 -50 -40 -21 -21
-44 -41 -51 -42 -8 -2 -16 -6 -19 -10 -3 -3 -12 -8 -19 -10 -8 -2 -32 -20 -54
-40 -22 -21 -45 -38 -52 -38 -6 0 -20 -9 -30 -20 -10 -11 -24 -20 -30 -20 -7
0 -21 -11 -31 -25 -10 -14 -27 -25 -37 -25 -10 0 -15 -4 -12 -10 3 -5 0 -10
-7 -10 -8 0 -20 -9 -28 -20 -8 -11 -29 -25 -47 -31 -18 -6 -33 -15 -33 -20 0
-5 -7 -9 -15 -9 -8 0 -15 -4 -15 -10 0 -5 -7 -10 -15 -10 -8 0 -15 -4 -15 -10
0 -5 -9 -10 -21 -10 -11 0 -17 -4 -14 -10 3 -5 0 -10 -7 -10 -8 0 -20 -9 -28
-20 -8 -11 -22 -20 -32 -20 -10 0 -18 -4 -18 -10 0 -5 -10 -21 -22 -36 -13
-14 -24 -39 -25 -55 l-3 -29 745 0 c485 0 746 3 750 10 3 6 15 10 26 10 10 0
19 5 19 10 0 17 47 60 66 60 9 0 31 16 49 36 19 20 37 34 42 31 5 -3 16 3 23
14 8 10 23 19 33 19 10 0 15 5 12 10 -3 6 1 10 9 10 9 0 16 5 16 10 0 6 9 10
20 10 11 0 20 4 20 8 0 5 12 15 28 23 15 7 41 28 58 46 18 18 37 33 43 33 7 0
23 11 37 25 14 14 29 23 33 21 4 -3 14 4 21 15 8 10 20 19 28 19 7 0 27 13 45
30 18 16 37 30 43 30 6 0 21 12 35 26 13 14 34 30 47 35 13 5 20 13 17 19 -3
5 1 10 9 10 9 0 16 5 16 10 0 6 5 10 11 10 6 0 24 11 41 25 16 14 36 25 43 25
8 0 25 11 39 25 14 14 30 25 36 25 5 0 10 5 10 10 0 6 7 10 15 10 8 0 15 5 15
10 0 6 7 10 15 10 17 0 85 64 85 80 0 5 5 10 11 10 16 0 39 26 39 44 0 9 5 16
10 16 6 0 10 7 10 16 0 8 5 12 11 8 7 -4 10 2 8 18 -2 14 5 33 19 48 12 13 21
29 19 35 -3 5 1 19 6 30 6 11 12 26 13 34 2 8 8 17 14 21 7 4 11 10 11 14 -3
23 0 36 9 31 6 -4 10 5 10 20 0 15 4 24 10 20 6 -3 10 3 10 14 0 12 5 21 10
21 6 0 10 9 10 20 0 11 5 20 10 20 6 0 10 9 10 19 0 10 7 21 15 25 8 3 15 15
15 26 0 11 5 20 10 20 6 0 10 11 10 25 0 14 5 25 10 25 6 0 10 8 10 18 0 9 14
33 30 52 16 19 28 40 26 45 -2 6 2 19 7 30 6 11 12 26 13 34 2 8 8 17 14 21 7
4 11 10 11 14 -3 23 0 36 9 31 6 -3 10 4 10 18 0 13 9 33 20 45 11 12 20 32
20 44 0 13 11 32 25 42 16 12 25 29 25 47 0 16 5 29 10 29 6 0 10 7 10 15 0 8
4 15 8 15 4 0 8 9 9 20 1 11 9 27 17 36 14 13 20 28 14 37 -1 1 5 13 12 27 8
14 13 31 12 38 -2 7 4 15 13 18 8 3 15 15 15 25 0 10 5 19 10 19 6 0 10 7 10
16 0 8 4 13 9 10 5 -3 9 6 9 20 0 15 3 29 8 33 5 3 10 13 12 21 2 8 8 17 13
18 5 2 9 12 9 23 0 10 5 19 10 19 6 0 10 9 10 20 0 20 18 60 31 70 7 5 12 49
10 82 -1 20 -32 21 -68 3z"/>
<path d="M1335 5931 c4 -40 17 -81 31 -91 7 -7 11 -17 8 -22 -4 -6 0 -14 7
-19 12 -8 12 -11 -1 -19 -10 -6 -11 -10 -2 -10 6 0 12 -9 12 -20 0 -11 5 -20
10 -20 6 0 10 -9 10 -19 0 -11 5 -21 11 -23 6 -2 12 -16 12 -31 0 -15 3 -24 8
-21 8 4 11 -10 8 -32 0 -4 4 -10 11 -14 6 -4 13 -16 14 -26 2 -10 9 -18 16
-16 8 2 11 -4 7 -18 -3 -13 0 -23 9 -27 8 -3 12 -9 9 -13 -3 -4 6 -24 20 -44
14 -21 22 -43 18 -53 -4 -11 -3 -14 5 -9 8 5 12 -1 12 -18 0 -14 4 -26 9 -26
5 0 11 -10 13 -22 2 -13 9 -22 17 -20 9 2 12 -4 8 -18 -3 -13 0 -23 9 -27 8
-3 14 -14 14 -24 0 -10 5 -19 10 -19 6 0 10 -9 10 -21 0 -11 5 -17 10 -14 6 4
10 -5 10 -20 0 -15 4 -24 10 -20 8 5 15 -19 8 -28 -2 -2 5 -11 15 -21 9 -10
15 -21 12 -26 -3 -4 2 -13 10 -20 8 -7 12 -16 9 -21 -3 -5 2 -12 10 -15 9 -3
14 -10 11 -14 -3 -4 6 -24 20 -44 14 -21 22 -43 18 -53 -4 -11 -3 -14 5 -9 8
5 12 -1 12 -18 0 -14 4 -26 9 -26 5 0 11 -10 13 -22 2 -13 9 -22 17 -20 9 2
12 -4 8 -18 -3 -13 0 -23 9 -27 8 -3 14 -14 14 -24 0 -10 5 -19 10 -19 6 0 10
-14 10 -31 0 -17 4 -28 10 -24 5 3 10 0 10 -9 0 -8 4 -16 10 -18 5 -1 11 -14
12 -28 2 -14 9 -31 16 -38 7 -8 10 -17 7 -22 -3 -4 2 -13 10 -20 8 -7 12 -16
9 -21 -3 -5 2 -16 11 -25 9 -9 19 -29 22 -45 3 -15 10 -27 17 -26 6 1 10 -8 9
-21 -2 -13 1 -21 7 -17 6 3 10 1 10 -5 0 -17 117 -130 135 -130 8 0 15 -4 15
-10 0 -5 7 -10 16 -10 8 0 12 -4 9 -10 -3 -5 3 -10 14 -10 12 0 21 -4 21 -10
0 -5 7 -10 16 -10 8 0 13 -4 10 -9 -3 -5 8 -14 24 -20 17 -5 30 -15 30 -20 0
-6 7 -11 15 -11 8 0 15 -4 15 -10 0 -5 7 -10 16 -10 17 0 44 -23 44 -38 0 -5
22 -21 50 -34 27 -14 47 -28 43 -31 -3 -4 0 -7 9 -7 8 0 23 -9 33 -20 10 -11
25 -20 33 -20 8 0 27 -12 42 -27 15 -16 33 -29 41 -31 8 -2 16 -8 17 -13 2 -5
10 -9 18 -9 9 0 12 -4 9 -10 -3 -5 2 -10 12 -10 10 0 31 -16 48 -35 16 -19 35
-35 41 -35 6 0 19 -9 29 -20 10 -11 25 -20 34 -20 9 0 23 -9 31 -20 8 -11 20
-20 28 -20 7 0 10 -4 7 -10 -3 -5 2 -10 12 -10 10 0 25 -9 33 -19 7 -11 17
-18 22 -15 4 3 16 0 25 -5 10 -6 14 -11 10 -11 -15 0 21 -30 37 -30 9 0 16 -4
16 -10 0 -5 5 -10 11 -10 14 0 39 -25 39 -39 0 -6 14 -11 31 -11 17 0 28 -4
24 -10 -4 -7 242 -10 730 -10 720 0 736 0 757 20 l21 20 -31 30 c-18 16 -37
30 -42 30 -6 0 -8 5 -5 10 3 6 -2 13 -12 17 -10 4 -27 15 -37 25 -11 10 -26
18 -33 18 -7 0 -13 5 -13 10 0 6 -7 10 -15 10 -8 0 -15 5 -15 10 0 6 -6 10
-14 10 -8 0 -21 8 -28 18 -7 10 -28 24 -45 31 -18 7 -33 17 -33 22 0 5 -7 9
-16 9 -8 0 -12 5 -9 10 3 6 -2 10 -12 10 -10 0 -31 16 -48 35 -16 19 -35 35
-41 35 -6 0 -19 9 -29 20 -10 11 -25 20 -33 20 -7 0 -27 14 -42 30 -15 17 -34
30 -42 30 -7 0 -20 9 -28 19 -7 11 -17 18 -22 15 -4 -3 -16 0 -25 5 -10 6 -14
11 -10 11 14 0 -21 30 -35 30 -8 0 -20 9 -28 20 -8 11 -20 20 -27 20 -7 0 -13
7 -13 15 0 8 -8 15 -18 15 -10 0 -24 9 -32 20 -8 11 -20 20 -28 20 -7 0 -10 5
-7 10 3 6 -3 10 -14 10 -12 0 -21 5 -21 10 0 6 -7 10 -15 10 -8 0 -15 5 -15
10 0 6 -5 10 -10 10 -6 0 -22 11 -36 25 -14 14 -31 25 -38 25 -7 0 -26 11 -42
25 -16 14 -33 25 -37 25 -12 0 -37 26 -37 38 0 5 -16 17 -35 26 -19 9 -38 23
-42 30 -9 15 -78 56 -94 56 -6 0 -23 12 -38 28 -14 15 -32 28 -40 30 -8 2 -26
16 -41 32 -16 17 -33 30 -40 30 -7 0 -21 11 -32 25 -11 14 -27 25 -37 25 -9 0
-23 9 -31 20 -8 11 -21 20 -29 20 -7 0 -21 8 -30 18 -9 10 -31 24 -48 31 -18
7 -30 17 -27 22 3 5 -3 9 -12 9 -10 0 -15 3 -11 6 9 9 -19 34 -37 34 -9 0 -16
5 -16 10 0 6 -5 10 -11 10 -14 0 -39 25 -39 39 0 6 -12 11 -26 11 -16 0 -37
12 -54 30 -15 17 -33 30 -39 30 -6 0 -11 4 -11 9 0 5 -8 12 -17 15 -37 14 -82
42 -108 69 -15 15 -34 27 -41 27 -8 0 -14 5 -14 10 0 6 -7 10 -16 10 -8 0 -12
5 -9 10 3 6 -4 10 -17 10 -13 0 -35 11 -50 24 -14 14 -29 22 -32 19 -3 -4 -6
-1 -6 5 0 7 -7 12 -16 12 -8 0 -13 4 -9 9 7 12 -38 61 -56 61 -8 0 -21 9 -29
19 -7 11 -17 18 -21 15 -4 -2 -19 7 -33 21 -14 14 -31 25 -38 25 -7 0 -26 16
-43 35 -16 19 -38 35 -47 35 -10 0 -18 5 -18 11 0 7 -10 9 -25 7 -13 -3 -22
-1 -19 4 6 10 -20 38 -36 38 -6 0 -8 5 -5 10 3 6 -1 10 -10 10 -10 0 -29 13
-45 30 -15 16 -30 26 -34 23 -3 -4 -15 3 -26 15 -12 12 -27 22 -35 22 -8 0
-25 11 -39 25 -14 14 -30 25 -36 25 -6 0 -8 5 -5 10 3 6 -2 13 -12 17 -10 4
-27 15 -37 25 -11 10 -28 18 -38 18 -11 0 -17 4 -14 9 3 5 -11 17 -31 27 -21
9 -52 31 -69 48 -17 17 -37 32 -45 34 -8 2 -15 8 -17 13 -2 5 -10 9 -18 9 -9
0 -12 5 -9 10 3 6 -1 10 -11 10 -9 0 -30 16 -47 35 -17 20 -37 35 -46 33 -27
-4 -74 12 -86 29 -16 22 -42 25 -40 4z"/>
<path d="M5035 3470 c4 -6 -8 -10 -29 -10 -20 0 -36 -4 -36 -10 0 -5 -9 -10
-20 -10 -11 0 -20 -4 -20 -10 0 -5 -6 -10 -14 -10 -28 0 -71 -30 -133 -95 -34
-36 -63 -70 -63 -76 0 -6 -4 -7 -10 -4 -5 3 -10 -1 -10 -11 0 -9 -12 -27 -26
-39 -20 -17 -25 -30 -22 -48 3 -15 1 -25 -5 -24 -5 1 -11 -7 -13 -18 -1 -11
-8 -21 -13 -23 -6 -2 -11 -21 -11 -43 0 -21 -4 -39 -10 -39 -6 0 -10 -33 -10
-80 0 -44 4 -80 9 -80 6 0 11 -24 13 -52 2 -35 7 -52 15 -51 7 2 10 -4 6 -12
-3 -9 1 -23 10 -33 8 -9 13 -25 12 -34 -2 -10 2 -18 9 -18 7 0 23 -20 36 -45
13 -25 27 -45 32 -45 4 0 8 -5 8 -10 0 -14 86 -100 100 -100 5 0 10 -3 10 -8
0 -4 22 -15 50 -25 27 -10 55 -23 62 -30 7 -6 24 -13 38 -15 14 -1 27 -7 28
-12 5 -13 329 -13 334 0 2 5 14 11 28 12 14 2 31 9 38 16 8 7 18 10 23 7 5 -4
9 -2 9 3 0 6 12 15 28 22 46 19 72 34 72 42 0 5 4 8 9 8 10 0 81 66 81 75 0 3
9 15 20 27 11 12 20 30 20 40 0 11 5 16 10 13 6 -4 10 5 10 19 0 14 5 26 10
26 6 0 10 6 10 14 0 8 7 17 16 20 10 4 14 14 11 26 -3 11 0 18 7 17 7 -1 12
21 14 66 2 37 6 67 10 67 13 0 13 71 0 87 -6 8 -11 35 -11 59 1 24 -3 44 -8
44 -5 0 -9 14 -9 30 0 18 -6 33 -15 36 -8 4 -15 15 -15 25 0 10 -4 19 -10 19
-5 0 -10 9 -10 20 0 11 -4 20 -10 20 -5 0 -10 9 -10 21 0 11 -4 17 -10 14 -5
-3 -10 -2 -10 4 0 14 -113 131 -127 131 -5 0 -18 9 -28 20 -10 11 -26 20 -37
20 -10 0 -18 5 -18 10 0 6 -12 10 -26 10 -14 0 -23 4 -19 10 4 6 -12 10 -39
10 -25 0 -46 5 -46 10 0 6 -57 10 -151 10 -97 0 -148 -4 -144 -10z"/>
<path d="M3826 3055 c-11 -14 -24 -24 -30 -22 -6 2 -23 -9 -38 -25 -14 -15
-32 -28 -40 -28 -7 0 -20 -9 -28 -20 -8 -11 -22 -20 -31 -20 -9 0 -24 -9 -34
-20 -10 -11 -24 -20 -31 -20 -6 0 -26 -16 -43 -35 -17 -19 -38 -35 -46 -35 -9
0 -13 -4 -10 -10 3 -5 0 -10 -9 -10 -8 0 -16 -4 -18 -9 -1 -5 -10 -11 -18 -13
-8 -2 -21 -11 -28 -20 -7 -10 -20 -18 -28 -18 -8 0 -14 -4 -14 -10 0 -5 -6
-10 -13 -10 -7 0 -23 -9 -35 -20 -12 -11 -26 -20 -32 -20 -5 0 -10 -4 -10 -10
0 -5 -7 -10 -15 -10 -8 0 -15 -4 -15 -10 0 -5 -6 -10 -12 -10 -17 0 -68 -44
-68 -59 0 -6 -7 -11 -15 -11 -26 0 -29 -2 -51 -28 -12 -13 -26 -22 -30 -19
-11 6 -35 -18 -27 -27 6 -6 0 -8 -29 -10 -61 -5 -78 -156 -18 -156 6 0 8 -4 5
-10 -3 -5 2 -10 12 -10 10 0 29 -14 42 -30 13 -17 39 -37 57 -46 19 -9 34 -20
34 -25 0 -5 9 -9 20 -9 11 0 20 -4 20 -10 0 -5 7 -10 16 -10 8 0 12 -4 9 -10
-3 -5 1 -10 10 -10 10 0 29 -13 45 -30 15 -16 30 -26 34 -23 3 4 21 -10 40
-30 19 -20 43 -37 55 -37 11 0 21 -5 21 -11 0 -15 26 -39 42 -39 8 0 20 -9 28
-20 8 -11 20 -20 28 -20 7 0 24 -11 38 -25 14 -14 32 -25 40 -25 8 0 17 -7 20
-15 4 -8 12 -15 19 -15 6 0 20 -9 30 -20 10 -11 24 -20 32 -20 7 0 13 -4 13
-10 0 -5 7 -10 16 -10 8 0 12 -4 9 -10 -3 -5 1 -10 10 -10 10 0 26 -11 37 -25
11 -14 25 -25 32 -25 7 0 25 -13 41 -30 16 -16 36 -30 45 -30 8 0 22 -9 30
-19 7 -11 17 -18 21 -15 4 2 23 -10 41 -28 25 -25 42 -33 68 -33 35 0 60 14
60 35 0 6 4 9 9 6 5 -3 9 6 9 21 0 15 5 29 11 31 6 2 11 17 11 33 0 16 5 29
10 29 6 0 10 16 10 35 0 19 5 35 10 35 6 0 10 16 10 35 0 23 5 35 14 35 8 0
13 8 11 18 -1 9 4 25 12 34 9 10 13 28 11 42 -3 15 -1 24 6 23 6 -1 12 13 14
31 2 17 8 32 13 32 6 0 9 15 8 33 -2 21 1 31 9 30 7 -2 11 6 8 20 -2 12 4 32
12 45 8 12 11 22 7 22 -4 0 -1 10 7 23 8 12 15 38 16 57 2 19 7 37 12 38 6 2
10 15 10 28 0 14 4 23 9 20 5 -3 9 6 9 21 0 15 5 29 11 31 6 2 11 21 11 43 0
21 5 39 10 39 6 0 10 11 10 25 0 14 5 25 10 25 6 0 10 25 10 55 0 54 -2 57
-54 109 -30 30 -57 52 -60 48 -4 -3 -17 6 -30 21 -13 15 -29 27 -36 27 -7 0
-21 11 -32 25 -11 14 -27 25 -37 25 -9 0 -23 9 -31 20 -8 11 -21 20 -28 20 -7
0 -31 18 -52 40 -20 21 -40 36 -44 33 -3 -4 -15 3 -26 15 -12 12 -27 22 -35
22 -8 0 -25 11 -39 25 -36 36 -103 35 -130 0z"/>
<path d="M6445 3067 c-11 -7 -24 -18 -28 -24 -4 -7 -14 -13 -22 -13 -8 0 -23
-10 -35 -22 -11 -12 -23 -19 -26 -15 -4 3 -19 -7 -34 -23 -16 -17 -34 -30 -42
-30 -7 0 -20 -9 -28 -20 -8 -11 -22 -20 -31 -20 -9 0 -31 -16 -48 -35 -17 -19
-36 -35 -42 -35 -6 0 -19 -9 -28 -19 -10 -11 -24 -21 -32 -23 -7 -2 -26 -15
-40 -30 -15 -16 -32 -28 -38 -28 -19 0 -71 -52 -71 -72 0 -10 5 -18 10 -18 6
0 10 -16 10 -35 0 -24 5 -35 15 -35 10 0 15 -11 15 -35 0 -19 5 -35 10 -35 6
0 10 -13 10 -30 0 -16 5 -30 10 -30 6 0 10 -13 10 -29 0 -16 5 -31 11 -33 6
-2 12 -16 12 -31 1 -15 5 -27 10 -27 4 0 7 -13 7 -28 0 -15 4 -32 10 -38 5 -5
11 -22 12 -37 1 -14 8 -29 15 -31 7 -3 10 -16 7 -31 -3 -16 0 -24 8 -23 8 2
11 -8 9 -29 -1 -18 2 -33 8 -33 5 0 11 -15 13 -32 2 -18 8 -32 14 -31 7 1 9
-8 6 -23 -2 -14 2 -32 11 -42 8 -9 13 -25 12 -34 -2 -10 1 -18 6 -18 5 0 9
-16 9 -35 0 -24 5 -35 15 -35 10 0 15 -11 15 -35 0 -19 5 -35 10 -35 6 0 10
-13 10 -30 0 -16 5 -30 10 -30 6 0 10 -14 10 -31 0 -17 4 -28 10 -24 6 3 10 1
10 -5 0 -21 25 -35 60 -35 35 0 62 14 53 28 -2 4 1 7 7 7 6 0 20 9 32 20 12
11 28 20 35 20 7 0 13 5 13 10 0 6 7 10 16 10 8 0 29 13 47 30 18 16 37 30 44
30 6 0 20 11 31 25 11 14 27 25 37 25 9 0 13 5 10 10 -3 6 -1 10 6 10 6 0 19
9 28 19 10 11 24 21 32 23 8 2 20 11 27 21 7 9 20 17 28 17 8 0 14 5 14 10 0
6 6 10 13 10 7 0 23 9 35 20 12 11 25 20 30 20 4 0 17 8 28 18 10 9 31 23 47
31 15 8 27 18 27 23 0 15 27 38 45 38 10 0 32 16 50 36 19 20 37 34 42 31 5
-3 16 3 23 14 8 10 23 19 33 19 10 0 15 5 12 10 -3 6 1 10 9 10 9 0 16 5 16
10 0 6 7 10 15 10 8 0 29 14 47 30 17 17 36 30 43 30 7 0 21 11 31 25 10 14
25 25 32 25 16 0 62 45 62 60 0 6 4 9 9 6 4 -3 8 8 7 24 -1 18 -6 30 -14 30
-7 0 -10 5 -7 10 3 6 -3 10 -14 10 -12 0 -21 5 -21 10 0 6 -8 10 -17 10 -9 0
-14 3 -10 6 9 9 -16 32 -29 27 -6 -2 -19 8 -30 22 -10 14 -27 25 -37 25 -19 0
-47 22 -47 38 0 5 -12 15 -27 23 -16 8 -35 22 -44 31 -9 10 -21 18 -28 18 -6
0 -11 5 -11 10 0 6 -6 10 -13 10 -8 0 -22 9 -32 20 -10 11 -26 20 -36 20 -10
0 -24 8 -31 18 -7 9 -20 18 -28 20 -8 2 -16 8 -18 13 -2 5 -10 9 -18 9 -9 0
-12 5 -9 10 3 6 -2 10 -12 10 -10 0 -27 11 -37 25 -10 14 -24 25 -30 25 -6 0
-29 18 -51 40 -22 21 -46 39 -53 40 -8 0 -26 12 -41 28 -14 15 -33 28 -40 30
-8 2 -22 12 -31 22 -10 11 -20 17 -24 13 -4 -4 -17 5 -30 20 -18 21 -32 27
-62 26 -22 0 -48 -6 -59 -12z"/>
<path d="M5145 2150 c-10 -11 -24 -20 -30 -20 -7 0 -26 -16 -42 -35 -17 -19
-38 -35 -47 -35 -10 0 -14 -4 -11 -10 3 -5 1 -10 -5 -10 -6 0 -22 -11 -36 -25
-14 -14 -36 -28 -49 -31 -14 -3 -25 -10 -25 -15 0 -5 -6 -9 -14 -9 -7 0 -26
-12 -42 -27 -16 -16 -42 -34 -57 -42 -15 -8 -27 -18 -27 -23 0 -4 -9 -8 -20
-8 -11 0 -20 -5 -20 -11 0 -16 -27 -39 -45 -39 -10 0 -32 -16 -50 -36 -19 -20
-37 -34 -42 -31 -5 3 -16 -3 -23 -14 -8 -10 -23 -19 -33 -19 -10 0 -15 -4 -12
-10 3 -5 0 -10 -7 -10 -8 0 -20 -9 -28 -20 -8 -11 -20 -20 -27 -20 -17 0 -53
-32 -47 -42 3 -4 -2 -5 -11 -2 -11 5 -27 -6 -49 -30 -19 -20 -39 -36 -45 -36
-7 0 -23 -11 -37 -25 -21 -21 -23 -28 -13 -47 16 -29 35 -48 48 -48 6 0 11 -4
11 -10 0 -5 10 -10 22 -10 12 0 18 -3 15 -6 -8 -9 32 -44 49 -44 7 0 24 -11
38 -25 14 -14 32 -25 41 -25 8 0 15 -5 15 -11 0 -13 50 -59 64 -59 5 0 16 -9
25 -19 10 -11 44 -34 77 -52 32 -18 66 -41 75 -51 9 -10 22 -18 28 -18 7 0 9
-4 6 -10 -3 -5 2 -10 12 -10 10 0 27 -11 37 -25 10 -14 24 -25 31 -25 6 0 20
-9 30 -20 10 -11 25 -20 34 -20 9 0 23 -9 31 -20 8 -11 21 -20 28 -20 8 0 26
-13 40 -28 15 -16 33 -27 39 -25 7 3 16 -2 19 -11 3 -9 13 -16 22 -16 8 0 13
-3 9 -6 -9 -9 19 -34 37 -34 9 0 16 -4 16 -10 0 -25 93 -4 112 26 4 7 19 15
33 18 14 4 23 10 20 15 -6 10 23 24 34 17 4 -3 14 4 21 15 8 10 23 19 33 19
10 0 15 5 12 10 -3 6 0 10 7 10 8 0 20 9 28 20 8 11 22 20 31 20 9 0 31 16 48
35 17 19 36 35 42 35 6 0 19 9 28 19 10 11 24 21 32 23 8 2 21 11 30 20 8 9
21 18 29 20 7 2 32 20 54 41 23 20 46 37 52 37 6 0 17 7 24 15 7 9 28 23 46
31 19 9 34 23 34 30 0 8 7 14 15 14 9 0 27 11 41 25 14 14 31 25 39 25 8 0 25
11 39 25 14 14 30 25 36 25 5 0 10 5 10 10 0 6 5 10 11 10 13 0 59 50 59 63 0
13 -48 57 -62 57 -7 0 -26 16 -43 35 -16 19 -37 35 -45 35 -9 0 -22 9 -30 20
-8 11 -22 20 -32 20 -10 0 -18 5 -18 10 0 6 -7 10 -16 10 -8 0 -12 5 -9 10 3
6 -1 10 -10 10 -10 0 -29 13 -45 30 -15 16 -30 26 -34 23 -4 -4 -17 5 -30 20
-13 15 -28 27 -35 27 -6 0 -11 5 -11 10 0 6 -9 10 -20 10 -11 0 -20 5 -20 10
0 6 -7 10 -16 10 -8 0 -12 5 -9 10 3 6 -2 13 -12 17 -10 4 -31 20 -48 35 -16
15 -35 28 -41 28 -6 0 -19 9 -29 20 -10 11 -26 20 -36 20 -10 0 -24 8 -31 18
-7 9 -19 18 -27 20 -8 2 -22 12 -32 23 -9 10 -23 19 -30 19 -8 0 -30 19 -49
41 -19 22 -50 47 -67 56 -18 8 -33 19 -33 24 0 18 -67 9 -85 -11z"/>
</g>
</svg>
