<?xml version="1.0" standalone="no"?>
<!DOCTYPE svg PUBLIC "-//W3C//DTD SVG 20010904//EN"
 "http://www.w3.org/TR/2001/REC-SVG-20010904/DTD/svg10.dtd">
<svg version="1.0" xmlns="http://www.w3.org/2000/svg"
 width="1041.000000pt" height="1041.000000pt" viewBox="0 0 1041.000000 1041.000000"
 preserveAspectRatio="xMidYMid meet">
<metadata>
Created by potrace 1.11, written by Peter Selinger 2001-2013
</metadata>
<g transform="translate(0.000000,1041.000000) scale(0.100000,-0.100000)"
fill="#000000" stroke="none">
<path d="M938 9373 c-20 -23 -108 -194 -108 -209 0 -7 -7 -14 -15 -18 -8 -3
-15 -14 -15 -25 0 -11 -4 -23 -10 -26 -5 -3 -10 -15 -10 -26 0 -10 -4 -19 -10
-19 -5 0 -10 -7 -10 -16 0 -9 -8 -28 -19 -42 -10 -15 -24 -45 -32 -67 -7 -22
-21 -49 -31 -61 -10 -11 -18 -28 -18 -37 0 -9 -4 -17 -10 -17 -5 0 -10 -10
-10 -22 0 -13 -14 -47 -30 -77 -17 -30 -30 -60 -30 -68 0 -7 -4 -13 -8 -13 -5
0 -16 -19 -26 -42 -22 -50 -38 -83 -94 -195 -23 -45 -42 -87 -42 -93 0 -7 -8
-23 -19 -36 -11 -14 -19 -40 -19 -65 -1 -36 5 -48 41 -85 23 -24 48 -44 54
-44 7 0 27 -16 44 -35 18 -19 37 -35 44 -35 6 0 24 -13 41 -28 16 -16 45 -36
64 -44 19 -9 51 -33 70 -52 19 -19 41 -36 48 -36 7 0 20 -9 29 -20 10 -11 25
-20 34 -20 9 0 19 -7 22 -14 3 -8 21 -23 39 -32 18 -9 37 -23 41 -31 7 -12 55
-43 139 -90 11 -6 23 -15 27 -20 3 -5 31 -25 61 -45 30 -20 67 -48 82 -62 15
-14 31 -26 36 -26 5 0 17 -9 26 -19 10 -11 28 -22 41 -25 12 -3 30 -17 39 -31
9 -14 23 -25 31 -25 9 0 23 -9 32 -20 10 -11 22 -20 28 -20 6 0 23 -12 39 -27
16 -15 73 -56 125 -91 53 -35 100 -70 104 -78 4 -8 22 -21 40 -31 18 -9 37
-22 42 -28 6 -7 22 -15 37 -19 16 -3 27 -12 25 -18 -1 -6 8 -17 20 -23 13 -7
32 -20 43 -30 11 -10 20 -14 20 -9 0 5 5 1 11 -8 5 -10 17 -18 25 -18 8 0 35
-11 60 -25 54 -30 74 -31 102 -5 16 15 22 32 22 65 0 25 -3 45 -8 45 -8 0 -42
73 -42 90 0 5 -12 35 -26 67 -14 32 -32 72 -39 88 -22 54 -35 80 -54 110 -11
17 -20 38 -20 48 -1 16 -19 55 -31 67 -16 15 -60 88 -60 98 0 17 -33 82 -42
82 -4 0 -5 7 -2 15 3 8 -8 35 -25 60 -17 25 -31 50 -31 56 0 10 -85 177 -125
244 -13 22 -24 52 -24 67 -1 15 -7 33 -14 40 -7 7 -26 40 -42 73 -16 33 -33
62 -37 63 -4 2 -8 16 -8 31 0 14 -9 34 -20 44 -11 9 -20 24 -20 32 0 8 -4 15
-10 15 -5 0 -10 11 -10 25 0 27 -22 69 -50 95 -9 8 -22 33 -29 55 -10 34 -47
114 -80 175 -9 18 -206 420 -244 498 -35 73 -77 112 -120 112 -20 0 -40 -7
-49 -17z"/>
<path d="M9327 9347 c-13 -12 -31 -41 -41 -64 -10 -23 -25 -44 -32 -47 -8 -3
-14 -16 -14 -29 0 -13 -11 -41 -25 -61 -14 -20 -25 -41 -25 -47 0 -6 -31 -72
-70 -148 -38 -75 -70 -144 -70 -154 0 -9 -8 -24 -18 -34 -10 -10 -34 -54 -53
-98 -18 -44 -40 -84 -46 -88 -7 -4 -13 -17 -13 -27 0 -11 -4 -20 -10 -20 -5 0
-10 -9 -10 -21 0 -11 -9 -32 -20 -46 -11 -14 -20 -32 -20 -39 0 -16 -90 -202
-255 -524 -41 -80 -95 -188 -120 -240 -24 -52 -72 -147 -105 -210 -32 -63 -60
-123 -60 -132 0 -10 -9 -26 -21 -36 -11 -11 -19 -26 -18 -33 2 -8 -5 -27 -15
-42 -10 -15 -23 -49 -27 -74 -5 -26 -12 -49 -17 -52 -14 -11 -42 -73 -42 -95
0 -27 49 -76 76 -76 12 0 29 9 39 20 10 11 22 20 27 20 19 0 98 41 98 51 0 6
4 8 9 4 10 -6 107 82 104 94 -1 4 22 15 51 24 29 9 62 28 74 42 12 14 28 25
35 25 7 0 20 9 30 20 9 11 23 20 31 20 8 0 19 6 23 14 4 7 23 21 41 30 17 9
32 20 32 24 0 4 17 18 38 32 20 14 43 31 51 38 8 7 26 21 40 30 14 9 31 20 36
25 6 4 47 31 91 60 45 29 89 61 98 70 10 9 23 17 29 17 7 0 27 16 44 35 18 19
38 35 46 35 7 0 24 11 37 25 13 14 30 25 37 25 8 0 16 7 19 15 4 8 10 12 15
10 4 -3 14 3 21 15 7 11 18 20 24 20 7 0 27 14 45 31 18 17 46 38 62 47 61 35
67 39 84 59 10 11 36 28 58 39 22 10 58 35 79 56 22 21 45 38 52 38 7 0 19 8
26 18 7 11 23 24 36 31 12 6 40 28 62 48 34 32 40 43 40 79 0 27 -7 49 -20 64
-11 13 -20 30 -20 39 0 13 -43 99 -109 221 -39 73 -61 121 -61 134 0 9 -4 16
-8 16 -5 0 -15 18 -22 40 -7 22 -21 47 -32 56 -10 10 -18 27 -18 40 0 13 -4
26 -10 29 -5 3 -10 17 -10 30 0 13 -6 28 -13 32 -15 9 -47 69 -47 88 0 7 -9
24 -20 38 -11 14 -20 33 -20 42 0 10 -11 28 -25 41 -14 13 -25 32 -25 44 0 29
-74 171 -102 195 -33 29 -102 30 -131 2z"/>
<path d="M289 8011 c-35 -35 -38 -73 -9 -116 11 -16 20 -37 20 -46 0 -9 11
-29 25 -45 14 -16 25 -35 25 -41 0 -7 5 -13 10 -13 6 0 10 -5 10 -10 0 -6 9
-30 20 -52 11 -23 20 -46 20 -52 0 -8 127 -273 151 -316 40 -69 195 -380 200
-400 3 -14 20 -49 37 -78 18 -29 32 -58 32 -65 0 -20 70 -150 89 -167 10 -9
16 -20 14 -26 -5 -16 40 -110 60 -125 5 -3 9 -10 8 -15 -1 -19 12 -54 19 -54
5 0 10 -12 12 -27 2 -19 16 -36 44 -55 23 -15 56 -41 73 -57 18 -17 56 -44 86
-61 29 -17 55 -37 58 -44 3 -8 19 -17 35 -21 16 -3 40 -17 52 -31 13 -13 28
-24 34 -24 6 0 17 -9 24 -20 7 -11 18 -20 25 -20 7 0 28 -16 47 -35 19 -19 39
-35 45 -35 7 0 20 -9 30 -20 10 -11 24 -20 31 -20 8 0 26 -12 41 -28 16 -15
40 -34 56 -41 15 -8 27 -18 27 -23 0 -4 7 -8 15 -8 8 0 29 -16 46 -35 18 -19
38 -35 46 -35 7 0 21 -9 30 -20 10 -11 23 -20 29 -20 6 0 18 -7 25 -16 7 -9
40 -34 74 -55 33 -21 69 -45 80 -54 10 -8 25 -15 32 -15 7 0 23 -12 36 -26 12
-15 52 -46 88 -70 37 -25 72 -51 79 -59 7 -8 23 -15 36 -15 13 0 23 -5 21 -12
-1 -6 13 -19 30 -28 18 -8 40 -25 49 -38 8 -12 21 -22 28 -22 7 0 23 -11 36
-25 13 -14 27 -25 32 -25 8 0 108 -67 118 -79 3 -3 22 -17 42 -31 21 -14 38
-29 38 -33 0 -4 14 -13 30 -18 17 -6 30 -14 30 -19 0 -4 13 -13 29 -20 16 -6
32 -18 35 -25 3 -8 22 -25 43 -38 21 -14 47 -33 58 -43 11 -11 34 -26 50 -34
17 -8 43 -25 58 -37 16 -13 32 -21 36 -18 4 2 25 -13 47 -33 21 -20 75 -60
119 -89 44 -29 89 -61 101 -71 11 -11 32 -25 45 -32 13 -7 28 -19 32 -26 4 -8
22 -21 39 -30 34 -18 33 -17 101 -74 27 -22 52 -40 56 -40 4 0 16 -8 27 -17
11 -10 29 -23 40 -29 10 -6 30 -17 44 -25 14 -8 29 -20 33 -27 5 -7 27 -21 50
-32 23 -11 65 -40 92 -66 28 -25 68 -53 90 -63 22 -10 53 -32 69 -50 17 -17
35 -31 41 -31 6 0 20 -8 31 -17 11 -10 35 -29 54 -42 19 -14 41 -33 48 -43 7
-10 19 -18 26 -18 7 0 21 -9 31 -20 10 -11 23 -20 30 -20 7 0 20 -9 30 -20 10
-11 24 -20 32 -20 8 0 26 -13 40 -30 13 -16 31 -30 39 -30 8 0 22 -9 31 -20
10 -11 23 -20 29 -20 7 0 25 -14 41 -30 15 -17 35 -30 44 -30 9 0 19 -7 23
-15 7 -19 88 -55 122 -55 13 0 41 15 63 35 35 32 42 47 54 116 2 9 13 32 25
53 12 20 22 48 22 62 0 13 5 24 10 24 6 0 10 15 10 33 0 19 3 37 7 41 4 3 8
16 10 29 2 12 10 25 18 30 8 4 15 19 15 32 0 13 5 27 10 30 5 3 10 18 10 33 0
30 16 79 43 131 9 19 17 46 17 60 0 15 9 51 20 81 11 30 20 78 20 107 0 46 -3
54 -31 75 -17 13 -49 39 -72 59 -23 19 -64 49 -92 67 -27 17 -59 40 -70 50
-11 11 -31 25 -45 32 -14 7 -31 21 -38 32 -7 10 -22 18 -32 18 -11 0 -24 9
-30 20 -6 11 -16 20 -23 20 -7 0 -26 14 -44 30 -18 17 -36 30 -42 30 -5 0 -22
14 -38 30 -15 17 -35 30 -43 30 -8 0 -21 9 -28 20 -7 11 -21 20 -32 20 -10 0
-25 8 -32 18 -20 27 -84 73 -91 65 -4 -3 -7 -2 -7 4 0 6 -25 26 -55 44 -31 19
-67 44 -80 56 -13 12 -34 24 -45 28 -11 3 -20 10 -20 14 0 4 -12 13 -27 20
-15 7 -33 21 -41 32 -7 10 -19 19 -26 19 -7 0 -25 14 -41 30 -16 17 -35 30
-42 30 -7 0 -21 9 -30 20 -10 11 -23 20 -30 20 -7 0 -25 13 -40 29 -16 15 -38
31 -50 35 -13 4 -23 11 -23 17 0 8 -28 29 -109 81 -14 9 -30 21 -36 25 -5 5
-35 25 -65 45 -30 20 -68 48 -83 62 -15 14 -34 26 -42 26 -8 0 -25 10 -38 23
-58 55 -123 104 -175 131 -15 8 -39 25 -52 39 -14 13 -35 27 -47 31 -13 4 -23
12 -23 17 0 6 -13 15 -29 20 -16 6 -32 17 -35 25 -3 8 -11 14 -19 14 -7 0 -26
13 -41 29 -16 16 -41 35 -57 41 -16 7 -29 16 -29 20 0 4 -11 12 -24 18 -13 6
-35 20 -47 32 -52 47 -112 90 -125 90 -7 0 -20 10 -29 23 -8 13 -31 29 -50 37
-19 8 -35 17 -35 22 0 4 -9 8 -21 8 -11 0 -18 4 -14 9 3 5 -8 19 -25 31 -16
12 -30 18 -30 14 0 -4 -10 2 -23 14 -13 12 -26 20 -29 17 -3 -3 -18 8 -34 24
-15 16 -38 32 -51 36 -13 3 -23 10 -23 15 0 5 -17 21 -37 35 -63 41 -125 86
-140 100 -7 8 -22 16 -32 20 -11 3 -22 12 -25 20 -3 8 -12 15 -19 15 -8 0 -27
13 -43 30 -16 16 -35 30 -42 30 -7 0 -20 9 -29 20 -10 11 -24 20 -31 20 -8 0
-28 15 -46 34 -17 18 -41 37 -53 40 -11 4 -24 13 -27 21 -3 8 -12 15 -19 15
-8 0 -22 9 -32 20 -10 11 -27 22 -38 26 -11 4 -32 17 -46 30 -14 13 -30 24
-34 24 -8 0 -111 75 -180 132 -33 26 -68 50 -112 74 -16 9 -34 23 -38 30 -4 8
-22 21 -40 30 -18 10 -38 25 -45 35 -7 11 -19 19 -26 19 -7 0 -25 13 -42 29
-16 15 -39 31 -51 35 -13 4 -23 12 -23 17 0 5 -12 14 -26 19 -15 6 -35 22 -46
35 -11 14 -27 25 -36 25 -10 0 -23 9 -30 20 -7 11 -21 20 -32 20 -10 0 -25 8
-32 18 -7 11 -24 25 -38 32 -14 7 -28 19 -32 25 -5 7 -32 27 -62 43 -29 17
-60 37 -68 45 -7 8 -27 21 -44 30 -16 8 -38 24 -48 36 -11 12 -23 21 -28 21
-11 0 -48 27 -111 80 -95 81 -147 91 -198 41z"/>
<path d="M9995 8020 c-4 -6 -42 -28 -86 -50 -43 -22 -79 -45 -79 -50 0 -6 -6
-10 -14 -10 -8 0 -28 -16 -45 -35 -17 -19 -37 -35 -44 -35 -8 0 -26 -11 -41
-25 -15 -14 -29 -25 -31 -25 -5 0 -75 -45 -91 -59 -6 -5 -24 -16 -40 -24 -16
-9 -42 -29 -57 -46 -16 -17 -32 -29 -37 -26 -4 2 -15 -4 -25 -15 -10 -11 -23
-20 -30 -20 -6 0 -23 -12 -37 -27 -14 -16 -51 -43 -81 -61 -30 -18 -63 -42
-73 -53 -9 -10 -22 -19 -29 -19 -6 0 -24 -13 -40 -30 -16 -16 -35 -30 -42 -30
-7 0 -13 -4 -13 -8 0 -4 -20 -21 -45 -36 -25 -16 -45 -33 -45 -37 0 -5 -6 -9
-12 -9 -7 0 -35 -16 -63 -35 -27 -20 -67 -47 -87 -60 -21 -14 -38 -29 -38 -34
0 -5 -13 -13 -28 -19 -16 -5 -41 -22 -57 -36 -15 -14 -33 -26 -39 -26 -6 0
-20 -11 -31 -24 -18 -21 -35 -32 -111 -74 -13 -7 -24 -17 -24 -21 0 -5 -13
-14 -29 -21 -16 -6 -41 -25 -57 -41 -15 -16 -33 -29 -39 -29 -6 0 -17 -9 -25
-20 -8 -11 -22 -20 -31 -20 -9 0 -24 -9 -35 -21 -10 -12 -44 -37 -74 -57 -62
-41 -115 -82 -165 -129 -19 -18 -46 -35 -60 -39 -14 -3 -29 -12 -33 -19 -4 -6
-29 -24 -57 -40 -27 -15 -58 -36 -68 -46 -10 -11 -43 -33 -73 -50 -30 -17 -54
-35 -54 -39 0 -4 -13 -13 -30 -19 -16 -5 -30 -14 -30 -20 0 -5 -10 -13 -22
-17 -13 -4 -35 -20 -51 -35 -15 -16 -31 -29 -36 -29 -5 0 -25 -16 -46 -35 -21
-19 -41 -32 -45 -30 -4 2 -18 -7 -31 -21 -13 -15 -53 -45 -89 -69 -36 -24 -72
-50 -79 -59 -7 -9 -19 -16 -26 -16 -6 0 -20 -9 -30 -20 -10 -11 -21 -20 -26
-20 -12 0 -112 -70 -136 -96 -13 -14 -23 -21 -23 -17 0 4 -11 -4 -24 -19 -13
-16 -30 -28 -39 -28 -9 0 -33 -16 -54 -35 -21 -19 -41 -35 -46 -35 -9 0 -68
-39 -127 -85 -25 -19 -55 -39 -67 -45 -13 -5 -23 -14 -23 -19 0 -5 -10 -13
-22 -17 -13 -3 -31 -15 -41 -26 -10 -10 -36 -30 -58 -43 -21 -14 -39 -30 -39
-35 0 -5 -11 -12 -24 -16 -14 -3 -32 -14 -42 -25 -9 -10 -22 -19 -29 -19 -6 0
-26 -15 -43 -34 -17 -19 -40 -37 -51 -41 -12 -3 -21 -10 -21 -15 0 -4 -20 -18
-44 -30 -25 -12 -46 -24 -48 -28 -3 -7 -39 -32 -135 -92 -29 -18 -60 -44 -68
-57 -9 -12 -24 -23 -36 -23 -11 0 -22 -7 -25 -15 -3 -8 -14 -17 -24 -20 -10
-3 -33 -19 -52 -35 -18 -16 -39 -30 -46 -30 -7 0 -15 -6 -18 -14 -3 -8 -19
-20 -35 -26 -16 -7 -29 -15 -29 -19 0 -4 -20 -20 -45 -35 -25 -16 -45 -32 -45
-36 0 -4 -13 -13 -28 -19 -15 -6 -40 -25 -56 -41 -15 -17 -32 -28 -36 -25 -5
3 -11 1 -15 -5 -3 -6 -36 -30 -73 -54 -37 -24 -82 -61 -100 -82 -31 -35 -33
-41 -28 -93 7 -81 17 -130 27 -137 5 -3 9 -15 9 -27 0 -12 9 -45 19 -72 42
-109 81 -237 81 -264 0 -12 7 -24 15 -27 8 -4 15 -19 15 -34 0 -16 4 -32 10
-35 6 -3 10 -17 10 -30 0 -13 4 -27 10 -30 6 -3 10 -17 10 -30 0 -13 4 -27 10
-30 6 -3 10 -14 10 -24 0 -52 75 -136 126 -140 32 -2 88 28 129 69 12 11 25
20 31 20 6 0 21 9 34 20 13 11 29 20 36 20 7 0 17 6 21 13 7 12 54 47 124 92
63 40 97 65 113 84 11 11 24 21 30 21 6 0 24 14 40 30 16 17 34 30 39 30 6 0
17 7 26 15 23 22 90 65 101 65 6 0 10 5 10 10 0 6 6 10 13 10 7 0 19 9 27 20
8 11 20 20 26 20 6 0 23 11 38 25 15 14 31 25 36 25 5 0 19 13 31 29 12 17 36
35 53 42 17 7 50 25 73 41 23 15 45 28 49 28 5 0 18 11 29 24 11 12 34 31 50
40 43 24 96 63 125 92 28 27 96 74 109 74 4 0 16 9 26 20 10 11 24 20 32 20 7
0 13 4 13 9 0 5 15 16 33 24 18 9 45 30 60 46 15 17 31 31 36 31 5 0 28 16 51
35 23 19 45 33 50 30 4 -2 15 4 25 15 10 11 24 20 32 20 7 0 16 6 19 14 3 8
19 20 35 26 16 7 29 15 29 19 0 4 20 20 44 35 25 15 47 35 50 42 3 8 18 20 34
27 15 7 34 18 42 25 8 7 38 27 65 45 28 17 56 37 63 44 7 7 18 13 23 13 5 0
23 14 41 30 17 17 36 30 42 30 6 0 22 12 35 25 13 14 28 25 35 25 6 0 22 12
35 25 12 14 27 23 31 20 4 -3 22 10 38 29 17 19 43 42 59 51 15 8 40 23 54 33
14 9 43 29 65 43 22 15 45 34 53 43 7 9 31 26 52 38 22 12 39 25 39 30 0 4 6
8 13 8 7 0 31 15 53 34 21 18 58 43 81 55 23 11 46 27 50 34 4 8 26 25 48 39
22 14 46 33 54 42 7 9 19 16 25 16 6 0 22 12 35 26 13 14 43 35 65 46 23 11
43 24 46 28 3 4 19 14 35 23 17 8 41 27 54 41 14 14 30 26 38 26 7 0 13 4 13
8 0 5 12 15 27 23 15 8 36 22 46 32 10 10 34 25 53 33 19 8 34 19 34 24 0 6
11 15 25 20 14 5 25 14 25 20 0 5 4 10 9 10 12 0 52 33 120 100 31 30 58 53
61 51 4 -4 34 53 94 179 9 19 24 49 33 65 27 49 33 64 33 77 0 7 8 18 19 25
10 6 21 24 24 40 13 66 21 88 37 106 22 23 230 439 230 460 0 8 12 29 26 46
14 17 24 37 21 45 -3 8 5 24 19 37 13 12 24 30 24 40 0 9 3 19 8 21 10 4 52
95 52 113 0 9 9 23 20 32 11 10 20 26 20 36 0 10 9 30 20 44 11 14 20 36 20
49 0 13 3 24 8 24 9 0 32 49 32 70 0 9 9 26 20 38 29 31 26 76 -7 107 -29 26
-86 35 -98 15z"/>
<path d="M1296 5984 c-27 -27 -33 -61 -17 -92 36 -71 51 -105 51 -115 0 -7 14
-39 30 -72 17 -33 30 -64 30 -70 0 -6 18 -45 40 -86 57 -108 80 -156 80 -171
0 -8 6 -20 13 -26 6 -7 13 -16 13 -20 5 -26 18 -52 25 -52 5 0 9 -8 9 -17 0
-9 6 -24 14 -32 15 -18 176 -333 176 -345 0 -9 52 -113 89 -179 11 -21 21 -46
21 -56 0 -10 11 -26 24 -36 13 -10 22 -24 19 -31 -2 -7 5 -31 16 -55 12 -23
21 -49 21 -56 0 -8 6 -16 14 -19 8 -3 18 -19 21 -36 4 -17 16 -45 26 -62 21
-35 153 -166 168 -166 5 0 16 -6 23 -13 7 -7 54 -40 103 -73 50 -33 102 -71
116 -84 14 -14 41 -34 59 -45 19 -11 46 -28 60 -37 14 -10 36 -23 50 -30 14
-7 36 -23 50 -35 45 -41 88 -73 97 -73 4 0 21 -12 37 -27 17 -15 59 -47 95
-71 36 -24 70 -50 74 -58 4 -8 12 -14 17 -14 12 0 141 -84 170 -112 65 -61 21
-58 845 -58 l751 0 27 31 c15 17 27 40 27 50 0 31 -69 98 -165 162 -49 32 -93
65 -98 72 -4 7 -20 16 -36 20 -16 3 -32 12 -35 20 -3 8 -20 22 -38 31 -18 9
-37 23 -41 31 -8 12 -61 51 -110 80 -12 6 -33 23 -47 36 -14 13 -35 27 -48 31
-12 4 -22 11 -22 16 0 5 -11 15 -24 22 -75 42 -92 53 -104 70 -7 10 -26 25
-42 33 -16 9 -40 25 -52 36 -13 12 -45 35 -72 53 -28 17 -79 49 -114 72 -36
22 -74 53 -84 67 -11 15 -26 27 -34 27 -8 0 -14 5 -14 10 0 6 -4 10 -9 10 -6
0 -21 10 -35 23 -13 12 -44 33 -69 45 -25 13 -56 34 -69 47 -13 14 -29 25 -35
25 -7 0 -25 14 -40 30 -14 17 -32 30 -38 30 -6 0 -22 11 -35 25 -13 14 -27 25
-31 25 -5 0 -29 15 -54 33 -26 17 -56 37 -68 44 -12 7 -35 25 -52 41 -16 16
-45 37 -62 46 -18 9 -40 28 -49 41 -9 14 -26 25 -38 25 -13 0 -36 13 -52 30
-16 16 -34 30 -41 30 -6 0 -13 3 -15 8 -1 4 -23 18 -48 32 -25 13 -53 33 -62
45 -10 11 -17 17 -18 13 0 -7 -8 -1 -61 47 -9 8 -24 15 -34 15 -10 0 -30 12
-45 28 -47 48 -94 86 -145 120 -106 68 -137 91 -148 109 -4 7 -27 22 -50 32
-23 11 -54 31 -69 45 -15 14 -31 26 -36 26 -5 0 -19 12 -33 26 -21 22 -95 64
-115 64 -3 0 -15 12 -27 26 -11 15 -61 53 -111 85 -50 31 -107 73 -126 92 -19
19 -45 38 -57 41 -11 4 -24 13 -27 21 -3 8 -12 15 -21 15 -9 0 -29 16 -46 35
-17 19 -40 35 -51 35 -24 0 -54 15 -91 46 -37 31 -58 30 -91 -2z"/>
<path d="M8990 5992 c-40 -19 -71 -40 -135 -92 -72 -58 -89 -70 -100 -70 -5 0
-27 -16 -48 -35 -21 -19 -47 -37 -58 -40 -10 -4 -19 -11 -19 -16 0 -5 -5 -9
-11 -9 -5 0 -31 -16 -57 -35 -63 -47 -64 -48 -87 -78 -11 -15 -28 -27 -37 -27
-10 0 -18 -4 -18 -10 0 -6 -3 -9 -7 -8 -14 2 -63 -21 -63 -31 0 -5 -13 -14
-30 -21 -16 -7 -30 -16 -30 -21 0 -4 -10 -11 -22 -15 -13 -3 -31 -15 -41 -26
-10 -10 -36 -30 -58 -43 -21 -14 -39 -30 -39 -36 0 -5 -16 -17 -35 -25 -19 -8
-35 -19 -35 -24 0 -5 -11 -12 -23 -16 -13 -3 -39 -21 -57 -40 -18 -19 -35 -33
-38 -30 -2 3 -19 -6 -36 -19 -17 -13 -49 -38 -71 -55 -22 -17 -65 -50 -95 -74
-30 -24 -66 -46 -79 -51 -23 -7 -91 -50 -101 -64 -3 -4 -21 -18 -40 -31 -19
-13 -42 -31 -50 -39 -8 -7 -31 -21 -51 -30 -20 -9 -55 -35 -79 -58 -23 -23
-61 -52 -84 -64 -22 -12 -43 -25 -46 -29 -5 -8 -66 -52 -132 -95 -21 -14 -38
-30 -38 -35 0 -5 -11 -12 -25 -16 -14 -3 -29 -12 -33 -19 -7 -12 -71 -57 -118
-83 -13 -7 -24 -17 -24 -22 0 -5 -10 -12 -22 -16 -31 -9 -78 -45 -78 -59 0 -6
-23 -19 -50 -29 -28 -10 -56 -26 -63 -35 -15 -21 -113 -91 -127 -91 -6 0 -13
-6 -16 -14 -3 -8 -19 -20 -35 -26 -16 -7 -29 -15 -29 -19 0 -4 -15 -15 -32
-26 -18 -10 -46 -32 -61 -48 -16 -16 -46 -37 -68 -46 -21 -10 -47 -27 -56 -38
-22 -24 -119 -93 -132 -93 -6 0 -16 -8 -23 -18 -7 -11 -24 -25 -38 -32 -14 -7
-39 -27 -56 -43 -18 -17 -38 -31 -46 -33 -9 -1 -34 -16 -58 -33 -24 -17 -49
-31 -56 -31 -7 0 -21 -11 -31 -24 -10 -13 -33 -31 -51 -40 -18 -9 -32 -20 -32
-24 0 -5 -8 -17 -17 -28 -10 -10 -25 -32 -33 -47 -13 -26 -12 -32 5 -65 l20
-37 755 -3 c832 -2 793 -5 848 59 13 16 31 29 40 29 10 0 28 14 42 30 14 17
33 30 43 30 10 0 20 7 23 15 3 8 16 17 27 21 12 4 29 13 37 21 8 8 38 28 65
46 28 18 64 44 80 60 17 15 35 27 41 27 6 0 19 9 29 20 10 11 24 20 32 20 7 0
16 6 19 14 3 8 19 20 35 26 16 7 29 15 29 19 0 4 20 20 44 35 25 16 53 37 62
47 9 10 22 19 29 19 6 0 21 10 32 23 35 37 72 65 96 73 21 6 78 44 105 70 6 7
22 16 34 20 25 8 158 134 158 150 0 6 9 21 20 34 11 13 20 29 20 37 0 8 10 33
22 56 34 67 38 76 38 92 0 8 5 15 10 15 6 0 10 9 10 20 0 11 3 20 8 20 8 0 32
49 32 67 0 7 3 13 8 13 4 0 13 15 21 33 8 17 19 39 26 47 7 8 24 45 38 82 15
38 36 77 47 88 11 11 23 32 26 47 4 16 20 53 36 84 15 31 28 64 28 73 0 9 9
24 20 33 11 10 20 27 20 38 0 11 11 32 25 47 14 15 25 36 25 46 0 11 9 31 21
46 11 15 18 33 15 41 -3 8 -1 15 5 15 8 0 33 49 29 58 -2 5 54 106 72 131 10
13 18 34 18 47 0 13 3 24 8 24 8 0 43 74 49 102 1 9 12 33 23 53 11 19 20 42
20 50 0 8 5 15 10 15 21 0 10 65 -15 93 -30 31 -55 33 -105 9z"/>
<path d="M5005 3510 c-3 -5 -14 -10 -23 -10 -9 0 -48 -16 -87 -35 -52 -26 -91
-56 -152 -119 -46 -47 -83 -89 -83 -94 0 -5 -11 -19 -25 -32 -14 -13 -25 -33
-25 -44 0 -12 -9 -36 -20 -54 -11 -18 -20 -45 -20 -60 0 -16 -5 -33 -11 -39
-7 -7 -9 -44 -5 -104 7 -138 15 -184 42 -236 12 -26 21 -50 18 -54 -2 -5 7
-16 21 -25 14 -9 25 -21 25 -26 0 -39 153 -188 212 -206 24 -8 53 -23 65 -34
13 -12 30 -19 42 -15 12 3 22 -1 25 -9 8 -21 374 -20 382 1 4 8 10 12 16 9 12
-8 63 13 114 48 23 15 46 28 51 28 28 0 183 180 183 213 0 5 15 33 34 61 35
53 46 108 47 236 2 163 -60 310 -185 437 -39 40 -76 73 -82 73 -5 0 -19 8 -30
18 -28 26 -104 60 -149 68 -72 12 -373 16 -380 4z"/>
<path d="M3810 3100 c-13 -11 -28 -20 -34 -20 -6 0 -24 -14 -40 -30 -16 -16
-37 -32 -47 -35 -11 -4 -19 -10 -19 -15 0 -5 -10 -12 -22 -16 -25 -7 -56 -29
-117 -81 -21 -18 -43 -33 -48 -33 -6 0 -18 -9 -28 -20 -10 -11 -24 -20 -31
-20 -7 0 -18 -9 -24 -20 -6 -11 -15 -20 -19 -20 -14 0 -121 -72 -121 -81 0 -5
-3 -8 -7 -7 -11 4 -103 -61 -103 -72 0 -6 -9 -10 -20 -10 -11 0 -23 -6 -26
-14 -3 -8 -19 -20 -35 -26 -16 -7 -29 -16 -29 -21 0 -4 -10 -11 -22 -15 -13
-4 -39 -22 -58 -41 -32 -31 -35 -38 -35 -92 0 -54 3 -62 35 -95 19 -20 40 -36
46 -36 6 0 19 -10 30 -21 10 -12 46 -39 79 -60 33 -21 65 -42 70 -46 6 -5 21
-15 35 -24 14 -9 36 -26 49 -38 13 -11 27 -21 30 -21 3 0 17 -10 31 -23 14
-13 40 -32 58 -42 17 -11 32 -23 32 -28 0 -4 14 -13 30 -18 17 -6 30 -15 30
-20 0 -6 14 -15 30 -20 17 -6 30 -15 30 -20 0 -5 10 -14 23 -19 12 -5 40 -23
62 -40 22 -16 50 -35 63 -41 12 -7 22 -16 22 -21 0 -5 10 -13 23 -18 12 -6 42
-26 67 -45 25 -19 72 -53 105 -75 33 -22 72 -50 86 -64 20 -17 39 -24 77 -24
43 -1 55 3 86 31 20 19 36 40 36 47 0 8 9 41 20 74 35 105 40 122 40 138 0 9
7 18 15 22 8 3 15 15 15 26 0 11 4 28 9 38 5 9 14 35 20 57 7 22 16 49 21 60
4 11 13 40 20 65 7 25 21 71 32 104 11 32 18 66 15 76 -3 11 1 21 10 24 8 3
12 10 9 15 -3 5 1 14 9 21 8 7 15 23 15 36 0 12 5 26 10 29 6 3 10 19 10 35 0
15 9 49 20 75 13 31 20 69 20 111 l0 65 -57 58 c-54 53 -82 74 -232 173 -31
21 -69 51 -86 67 -28 27 -100 71 -117 71 -4 0 -18 11 -32 25 -21 21 -34 25
-84 25 -45 0 -65 -5 -82 -20z"/>
<path d="M6418 3103 c-16 -8 -28 -18 -28 -24 0 -5 -5 -9 -11 -9 -6 0 -23 -9
-39 -20 -15 -11 -29 -17 -32 -15 -2 3 -17 -9 -33 -25 -16 -17 -34 -30 -40 -30
-7 0 -20 -9 -30 -20 -10 -11 -23 -20 -30 -20 -6 0 -22 -12 -36 -26 -23 -25
-104 -84 -115 -84 -3 0 -19 -13 -36 -30 -16 -16 -35 -30 -41 -30 -7 0 -29 -18
-50 -41 -34 -36 -38 -45 -33 -75 3 -19 9 -50 12 -70 4 -19 13 -38 20 -41 8 -3
14 -18 14 -33 0 -16 5 -32 10 -35 6 -3 10 -17 10 -30 0 -13 5 -27 10 -30 6 -3
10 -17 10 -30 0 -13 5 -27 10 -30 6 -3 10 -17 10 -30 0 -13 5 -27 10 -30 6 -3
10 -15 10 -26 0 -10 4 -27 9 -37 5 -9 14 -37 21 -62 7 -25 16 -53 21 -62 5
-10 9 -27 9 -37 0 -11 5 -23 10 -26 6 -3 10 -17 10 -30 0 -13 5 -27 10 -30 6
-3 10 -17 10 -30 0 -13 5 -27 10 -30 6 -3 10 -16 10 -29 0 -12 4 -26 9 -31 6
-6 11 -22 13 -36 2 -15 8 -33 14 -40 6 -8 23 -52 38 -98 36 -114 64 -141 140
-138 48 2 60 7 87 35 18 18 52 42 76 53 24 11 43 23 43 27 0 6 70 58 119 87 9
6 28 21 41 33 14 13 37 30 53 38 15 8 27 19 27 24 0 6 4 10 9 10 15 0 214 138
224 155 4 8 15 15 24 15 9 0 29 14 45 30 15 17 35 30 43 30 9 0 18 6 21 14 3
8 19 20 35 26 16 7 29 16 29 20 0 4 13 13 29 20 16 6 38 21 48 33 11 12 35 31
54 42 18 11 40 25 49 30 9 6 35 29 58 51 31 31 42 49 42 72 0 50 -17 81 -55
99 -19 9 -35 20 -35 24 0 12 -105 79 -124 79 -9 0 -16 6 -16 13 0 12 -51 57
-64 57 -3 0 -17 11 -32 25 -28 26 -54 43 -111 70 -18 8 -33 19 -33 23 0 4 -23
21 -51 37 -28 17 -61 40 -72 53 -11 12 -26 22 -32 22 -6 0 -29 18 -50 40 -21
22 -43 40 -48 40 -5 0 -24 12 -42 28 -49 40 -88 66 -103 69 -8 1 -21 11 -29
22 -12 18 -24 21 -76 20 -34 -1 -74 -8 -89 -16z"/>
<path d="M5110 2179 c-25 -16 -55 -41 -68 -55 -13 -13 -27 -24 -32 -24 -6 0
-29 -18 -52 -40 -24 -22 -49 -40 -57 -40 -8 0 -50 -27 -93 -60 -44 -33 -86
-60 -93 -60 -7 0 -20 -11 -29 -25 -9 -14 -23 -25 -31 -25 -8 0 -29 -13 -47
-30 -17 -16 -37 -30 -44 -30 -7 0 -17 -6 -21 -14 -4 -7 -19 -19 -32 -26 -13
-7 -34 -21 -45 -32 -12 -11 -44 -34 -71 -51 -28 -18 -62 -42 -75 -55 -14 -12
-41 -33 -60 -45 -51 -33 -67 -66 -51 -105 18 -44 47 -73 111 -116 92 -60 121
-80 138 -97 31 -30 116 -92 172 -125 30 -17 69 -45 87 -61 59 -51 101 -83 110
-83 6 0 18 -9 28 -20 10 -11 25 -20 34 -20 9 0 22 -9 29 -20 7 -12 17 -18 21
-15 5 3 24 -11 42 -30 19 -19 39 -35 45 -35 6 0 23 -12 38 -27 71 -71 137 -71
251 0 92 57 133 84 150 100 11 10 31 25 45 32 14 7 36 25 49 39 14 14 29 26
35 26 6 0 22 12 35 25 12 14 27 22 32 19 5 -3 12 2 15 10 3 8 16 18 27 22 12
4 38 22 57 40 40 38 106 84 120 84 6 0 10 5 10 10 0 6 7 10 15 10 9 0 18 7 21
15 4 8 12 15 19 15 7 0 21 11 31 25 10 14 27 25 36 25 10 0 18 4 18 10 0 5 4
9 8 7 10 -3 64 38 113 87 50 49 51 90 3 136 -18 16 -36 30 -41 30 -4 0 -21 12
-38 28 -16 15 -52 41 -80 59 -27 18 -55 37 -62 43 -7 5 -24 15 -38 22 -14 6
-25 15 -25 19 0 5 -33 30 -72 56 -89 59 -144 99 -180 132 -16 14 -28 21 -28
17 0 -4 -14 4 -31 18 -17 14 -37 26 -45 26 -8 0 -14 4 -14 9 0 5 -25 24 -56
42 -30 19 -75 53 -99 77 -24 23 -48 42 -53 42 -5 0 -19 9 -32 20 -35 31 -95
26 -150 -11z"/>
</g>
</svg>
